<?xml version="1.0" encoding="utf-8"?>
<!-- Generator: Adobe Illustrator 17.0.0, SVG Export Plug-In . SVG Version: 6.00 Build 0)  -->
<!DOCTYPE svg PUBLIC "-//W3C//DTD SVG 1.1//EN" "http://www.w3.org/Graphics/SVG/1.1/DTD/svg11.dtd">
<svg version="1.1" id="Board" xmlns="http://www.w3.org/2000/svg" xmlns:xlink="http://www.w3.org/1999/xlink" x="0px" y="0px"
	 width="612px" height="625.3px" viewBox="139.4 383.7 612 625.3" enable-background="new 139.4 383.7 612 625.3"
	 xml:space="preserve">
<g id="A1">
	<rect x="178.6" y="424.2" fill="#EDE7D3" width="66.7" height="66.7"/>
	<path fill="#D33483" d="M236.3,442.4c-1.5-1-3.5-0.6-4.5,0.9c-0.8,1.3-0.6,3.1,0.4,4.1l-10.6,10.9l1.6-15.1c1.5,0.2,3-0.7,3.4-2.2
		c0.5-1.7-0.4-3.5-2.1-4c-1.7-0.5-3.5,0.4-4,2.1c-0.4,1.5,0.3,3.1,1.6,3.8l-6.9,13.6l-2.8-15c1.5-0.3,2.7-1.5,2.7-3.2
		s-1.4-3.2-3.2-3.2c-1.7,0-3.2,1.4-3.2,3.2c0,1.5,1.1,2.9,2.7,3.2l-2.8,15l-6.9-13.6c1.3-0.7,2-2.2,1.6-3.8c-0.5-1.7-2.3-2.7-4-2.1
		c-1.7,0.5-2.7,2.3-2.1,4c0.4,1.5,1.9,2.5,3.4,2.2l1.6,15.1l-10.6-10.9c1.1-1,1.3-2.8,0.4-4.1c-1-1.5-3-1.9-4.5-0.9s-1.9,3-0.9,4.5
		c0.8,1.3,2.6,1.7,3.9,1.2l7.8,15.1c0,0,0.8,4,0.8,7.6s-3,3.6-3,6c0,2.3,10.7,3.2,15.9,3.2s15.9-0.8,15.9-3.2c0-2.3-3-2.3-3-6
		s0.8-7.6,0.8-7.6l7.8-15.1c1.4,0.6,3.1,0.1,3.9-1.2C238.2,445.4,237.8,443.4,236.3,442.4z"/>
</g>
<g id="B1">
	<rect x="245.4" y="424.2" fill="#FDF6E3" width="66.7" height="66.7"/>
	<path fill="#D33483" d="M303.2,442.4c-1.5-1-3.5-0.6-4.5,0.9c-0.8,1.3-0.6,3.1,0.4,4.1l-10.6,10.9l1.6-15.1c1.5,0.2,3-0.7,3.4-2.2
		c0.5-1.7-0.4-3.5-2.1-4s-3.5,0.4-4,2.1c-0.4,1.5,0.3,3.1,1.6,3.8l-6.9,13.6l-2.8-15c1.5-0.3,2.7-1.5,2.7-3.2s-1.4-3.2-3.2-3.2
		s-3.2,1.4-3.2,3.2c0,1.5,1.1,2.9,2.7,3.2l-2.8,15l-6.9-13.6c1.3-0.7,2-2.2,1.6-3.8c-0.5-1.7-2.3-2.7-4-2.1c-1.7,0.5-2.7,2.3-2.1,4
		c0.4,1.5,1.9,2.5,3.4,2.2l1.6,15.1l-10.7-10.9c1.1-1,1.3-2.8,0.4-4.1c-1-1.5-3-1.9-4.5-0.9s-1.9,3-0.9,4.5c0.8,1.3,2.6,1.7,3.9,1.2
		l7.8,15.1c0,0,0.8,4,0.8,7.6s-3,3.6-3,6c0,2.3,10.7,3.2,15.9,3.2s15.9-0.8,15.9-3.2c0-2.3-3-2.3-3-6s0.8-7.6,0.8-7.6l7.8-15.1
		c1.4,0.6,3.1,0.1,3.9-1.2C305,445.4,304.6,443.4,303.2,442.4z"/>
</g>
<g id="C1">
	<rect x="312.1" y="424.2" fill="#EDE7D3" width="66.7" height="66.7"/>
	<path fill="#D33483" d="M370,442.4c-1.5-1-3.5-0.6-4.5,0.9c-0.8,1.3-0.6,3.1,0.4,4.1l-10.6,10.9l1.6-15.1c1.5,0.2,3-0.7,3.4-2.2
		c0.5-1.7-0.4-3.5-2.1-4s-3.5,0.4-4,2.1c-0.4,1.5,0.3,3.1,1.6,3.8l-6.9,13.6l-2.8-15c1.5-0.3,2.7-1.5,2.7-3.2s-1.4-3.2-3.2-3.2
		s-3.2,1.4-3.2,3.2c0,1.5,1.1,2.9,2.7,3.2l-2.8,15l-6.9-13.6c1.3-0.7,2-2.2,1.6-3.8c-0.5-1.7-2.3-2.7-4-2.1c-1.7,0.5-2.7,2.3-2.1,4
		c0.4,1.5,1.9,2.5,3.4,2.2l1.6,15.1l-10.6-10.9c1.1-1,1.3-2.8,0.4-4.1c-1-1.5-3-1.9-4.5-0.9s-1.9,3-0.9,4.5c0.8,1.3,2.6,1.7,3.9,1.2
		l7.8,15.1c0,0,0.8,4,0.8,7.6s-3,3.6-3,6c0,2.3,10.7,3.2,15.9,3.2c5.2,0,15.9-0.8,15.9-3.2c0-2.3-3-2.3-3-6s0.8-7.6,0.8-7.6
		l7.8-15.1c1.4,0.6,3.1,0.1,3.9-1.2C371.8,445.4,371.4,443.4,370,442.4z"/>
</g>
<g id="D1">
	<rect x="378.7" y="424.2" fill="#FDF6E3" width="66.7" height="66.7"/>
	<path fill="#D33483" d="M436.8,442.4c-1.5-1-3.5-0.6-4.5,0.9c-0.8,1.3-0.6,3.1,0.4,4.1l-10.6,10.9l1.6-15.1c1.5,0.2,3-0.7,3.4-2.2
		c0.5-1.7-0.4-3.5-2.1-4s-3.5,0.4-4,2.1c-0.4,1.5,0.3,3.1,1.6,3.8l-6.9,13.6l-2.8-15c1.5-0.3,2.7-1.5,2.7-3.2s-1.4-3.2-3.2-3.2
		s-3.2,1.4-3.2,3.2c0,1.5,1.1,2.9,2.7,3.2l-2.8,15l-6.9-13.6c1.3-0.7,2-2.2,1.6-3.8c-0.5-1.7-2.3-2.7-4-2.1c-1.7,0.5-2.7,2.3-2.1,4
		c0.4,1.5,1.9,2.5,3.4,2.2l1.6,15.1l-10.6-10.9c1.1-1,1.3-2.8,0.4-4.1c-1-1.5-3-1.9-4.5-0.9s-1.9,3-0.9,4.5c0.8,1.3,2.6,1.7,3.9,1.2
		l7.8,15.1c0,0,0.8,4,0.8,7.6s-3,3.6-3,6c0,2.3,10.7,3.2,15.9,3.2s15.9-0.8,15.9-3.2c0-2.3-3-2.3-3-6s0.8-7.6,0.8-7.6l7.8-15.1
		c1.4,0.6,3.1,0.1,3.9-1.2C438.6,445.4,438.2,443.4,436.8,442.4z"/>
</g>
<g id="E1">
	<rect x="445.4" y="424.2" fill="#EDE7D3" width="66.7" height="66.7"/>
	<path fill="#D33483" d="M503.6,442.4c-1.5-1-3.5-0.6-4.5,0.9c-0.8,1.3-0.6,3.1,0.4,4.1l-10.6,10.9l1.6-15.1c1.5,0.2,3-0.7,3.4-2.2
		c0.5-1.7-0.4-3.5-2.1-4s-3.5,0.4-4,2.1c-0.4,1.5,0.3,3.1,1.6,3.8l-6.9,13.6l-2.8-15c1.5-0.3,2.7-1.5,2.7-3.2s-1.4-3.2-3.2-3.2
		s-3.2,1.4-3.2,3.2c0,1.5,1.1,2.9,2.7,3.2l-2.8,15l-6.9-13.6c1.3-0.7,2-2.2,1.6-3.8c-0.5-1.7-2.3-2.7-4-2.1c-1.7,0.5-2.7,2.3-2.1,4
		c0.4,1.5,1.9,2.5,3.4,2.2l1.6,15.1l-10.6-10.9c1.1-1,1.3-2.8,0.4-4.1c-1-1.5-3-1.9-4.5-0.9s-1.9,3-0.9,4.5c0.8,1.3,2.6,1.7,3.9,1.2
		l7.8,15.1c0,0,0.8,4,0.8,7.6s-3,3.6-3,6c0,2.3,10.7,3.2,15.9,3.2c5.2,0,15.9-0.8,15.9-3.2c0-2.3-3-2.3-3-6s0.8-7.6,0.8-7.6
		l7.8-15.1c1.4,0.6,3.1,0.1,3.9-1.2C505.5,445.4,505.1,443.4,503.6,442.4z"/>
</g>
<g id="F1">
	<rect x="512" y="424.2" fill="#FDF6E3" width="66.7" height="66.7"/>
	<path fill="#D33483" d="M570.5,442.4c-1.5-1-3.5-0.6-4.5,0.9c-0.8,1.3-0.6,3.1,0.4,4.1l-10.6,10.9l1.6-15.1c1.5,0.2,3-0.7,3.4-2.2
		c0.5-1.7-0.4-3.5-2.1-4c-1.7-0.5-3.5,0.4-4,2.1c-0.4,1.5,0.3,3.1,1.6,3.8l-6.9,13.6l-2.8-15c1.5-0.3,2.7-1.5,2.7-3.2
		s-1.4-3.2-3.2-3.2c-1.7,0-3.2,1.4-3.2,3.2c0,1.5,1.1,2.9,2.7,3.2l-2.8,15l-6.9-13.6c1.3-0.7,2-2.2,1.6-3.8c-0.5-1.7-2.3-2.7-4-2.1
		c-1.7,0.5-2.7,2.3-2.1,4c0.4,1.5,1.9,2.5,3.4,2.2l1.6,15.1l-10.7-10.9c1.1-1,1.3-2.8,0.4-4.1c-1-1.5-3-1.9-4.5-0.9s-1.9,3-0.9,4.5
		c0.8,1.3,2.6,1.7,3.9,1.2l7.8,15.1c0,0,0.8,4,0.8,7.6s-3,3.6-3,6c0,2.3,10.7,3.2,15.9,3.2s15.9-0.8,15.9-3.2c0-2.3-3-2.3-3-6
		s0.8-7.6,0.8-7.6l7.8-15.1c1.4,0.6,3.1,0.1,3.9-1.2C572.3,445.4,571.9,443.4,570.5,442.4z"/>
</g>
<g id="G1">
	<rect x="578.7" y="424.2" fill="#EDE7D3" width="66.7" height="66.7"/>
	<path fill="#D33483" d="M637.3,442.4c-1.5-1-3.5-0.6-4.5,0.9c-0.8,1.3-0.6,3.1,0.4,4.1l-10.6,10.9l1.6-15.1c1.5,0.2,3-0.7,3.4-2.2
		c0.5-1.7-0.4-3.5-2.1-4c-1.7-0.5-3.5,0.4-4,2.1c-0.4,1.5,0.3,3.1,1.6,3.8l-6.9,13.6l-2.8-15c1.5-0.3,2.7-1.5,2.7-3.2
		s-1.4-3.2-3.2-3.2c-1.7,0-3.2,1.4-3.2,3.2c0,1.5,1.1,2.9,2.7,3.2l-2.8,15l-6.9-13.6c1.3-0.7,2-2.2,1.6-3.8c-0.5-1.7-2.3-2.7-4-2.1
		c-1.7,0.5-2.7,2.3-2.1,4c0.4,1.5,1.9,2.5,3.4,2.2l1.6,15.1l-10.6-10.9c1.1-1,1.3-2.8,0.4-4.1c-1-1.5-3-1.9-4.5-0.9s-1.9,3-0.9,4.5
		c0.8,1.3,2.6,1.7,3.9,1.2l7.8,15.1c0,0,0.8,4,0.8,7.6s-3,3.6-3,6c0,2.3,10.7,3.2,15.9,3.2s15.9-0.8,15.9-3.2c0-2.3-3-2.3-3-6
		s0.8-7.6,0.8-7.6l7.8-15.1c1.4,0.6,3.1,0.1,3.9-1.2C639.1,445.4,638.7,443.4,637.3,442.4z"/>
</g>
<g id="H1">
	<rect x="645.3" y="424.2" fill="#FDF6E3" width="66.7" height="66.7"/>
	<path fill="#D33483" d="M704.1,442.4c-1.5-1-3.5-0.6-4.5,0.9c-0.8,1.3-0.6,3.1,0.4,4.1l-10.6,10.9l1.6-15.1c1.5,0.2,3-0.7,3.4-2.2
		c0.5-1.7-0.4-3.5-2.1-4c-1.7-0.5-3.5,0.4-4,2.1c-0.4,1.5,0.3,3.1,1.6,3.8l-6.9,13.6l-2.8-15c1.5-0.3,2.7-1.5,2.7-3.2
		s-1.4-3.2-3.2-3.2c-1.7,0-3.2,1.4-3.2,3.2c0,1.5,1.1,2.9,2.7,3.2l-2.8,15l-6.9-13.6c1.3-0.7,2-2.2,1.6-3.8c-0.5-1.7-2.3-2.7-4-2.1
		c-1.7,0.5-2.7,2.3-2.1,4c0.4,1.5,1.9,2.5,3.4,2.2l1.6,15.1l-10.6-10.9c1.1-1,1.3-2.8,0.4-4.1c-1-1.5-3-1.9-4.5-0.9s-1.9,3-0.9,4.5
		c0.8,1.3,2.6,1.7,3.9,1.2l7.8,15.1c0,0,0.8,4,0.8,7.6s-3,3.6-3,6c0,2.3,10.7,3.2,15.9,3.2s15.9-0.8,15.9-3.2c0-2.3-3-2.3-3-6
		s0.8-7.6,0.8-7.6l7.8-15.1c1.4,0.6,3.1,0.1,3.9-1.2C706,445.4,705.5,443.4,704.1,442.4z"/>
</g>
<g id="A2">
	<rect x="178.6" y="490.9" fill="#FDF6E3" width="66.7" height="66.7"/>
	<path fill="#D33483" d="M236.3,509.1c-1.5-1-3.5-0.6-4.5,0.9c-0.8,1.3-0.6,3.1,0.4,4.1L221.6,525l1.6-15.1c1.5,0.2,3-0.7,3.4-2.2
		c0.5-1.7-0.4-3.5-2.1-4c-1.7-0.5-3.5,0.4-4,2.1c-0.4,1.5,0.3,3.1,1.6,3.8l-6.9,13.6l-2.8-15c1.5-0.3,2.7-1.5,2.7-3.2
		s-1.4-3.2-3.2-3.2c-1.7,0-3.2,1.4-3.2,3.2c0,1.5,1.1,2.9,2.7,3.2l-2.8,15l-6.9-13.6c1.3-0.7,2-2.2,1.6-3.8c-0.5-1.7-2.3-2.7-4-2.1
		c-1.7,0.5-2.7,2.3-2.1,4c0.4,1.5,1.9,2.5,3.4,2.2l1.6,15.1l-10.6-10.9c1.1-1,1.3-2.8,0.4-4.1c-1-1.5-3-1.9-4.5-0.9s-1.9,3-0.9,4.5
		c0.8,1.3,2.6,1.7,3.9,1.2l7.8,15.1c0,0,0.8,4,0.8,7.6c0,3.6-3,3.6-3,6c0,2.3,10.7,3.2,15.9,3.2s15.9-0.8,15.9-3.2c0-2.3-3-2.3-3-6
		c0-3.7,0.8-7.6,0.8-7.6l7.8-15.1c1.4,0.6,3.1,0.1,3.9-1.2C238.2,512,237.8,510.1,236.3,509.1z"/>
</g>
<g id="B2">
	<rect x="245.4" y="490.9" fill="#EDE7D3" width="66.7" height="66.7"/>
	<path fill="#D33483" d="M303.2,509.1c-1.5-1-3.5-0.6-4.5,0.9c-0.8,1.3-0.6,3.1,0.4,4.1L288.5,525l1.6-15.1c1.5,0.2,3-0.7,3.4-2.2
		c0.5-1.7-0.4-3.5-2.1-4s-3.5,0.4-4,2.1c-0.4,1.5,0.3,3.1,1.6,3.8l-6.9,13.6l-2.8-15c1.5-0.3,2.7-1.5,2.7-3.2s-1.4-3.2-3.2-3.2
		s-3.2,1.4-3.2,3.2c0,1.5,1.1,2.9,2.7,3.2l-2.8,15l-6.9-13.6c1.3-0.7,2-2.2,1.6-3.8c-0.5-1.7-2.3-2.7-4-2.1c-1.7,0.5-2.7,2.3-2.1,4
		c0.4,1.5,1.9,2.5,3.4,2.2l1.6,15.1l-10.6-10.9c1.1-1,1.3-2.8,0.4-4.1c-1-1.5-3-1.9-4.5-0.9s-1.9,3-0.9,4.5c0.8,1.3,2.6,1.7,3.9,1.2
		l7.8,15.1c0,0,0.8,4,0.8,7.6c0,3.6-3,3.6-3,6c0,2.3,10.7,3.2,15.9,3.2s15.9-0.8,15.9-3.2c0-2.3-3-2.3-3-6c0-3.7,0.8-7.6,0.8-7.6
		l7.8-15.1c1.4,0.6,3.1,0.1,3.9-1.2C305,512,304.6,510.1,303.2,509.1z"/>
</g>
<g id="C2">
	<rect x="312.1" y="490.9" fill="#FDF6E3" width="66.7" height="66.7"/>
	<path fill="#D33483" d="M370,509.1c-1.5-1-3.5-0.6-4.5,0.9c-0.8,1.3-0.6,3.1,0.4,4.1L355.3,525l1.6-15.1c1.5,0.2,3-0.7,3.4-2.2
		c0.5-1.7-0.4-3.5-2.1-4s-3.5,0.4-4,2.1c-0.4,1.5,0.3,3.1,1.6,3.8l-6.9,13.6l-2.8-15c1.5-0.3,2.7-1.5,2.7-3.2s-1.4-3.2-3.2-3.2
		s-3.2,1.4-3.2,3.2c0,1.5,1.1,2.9,2.7,3.2l-2.8,15l-6.9-13.6c1.3-0.7,2-2.2,1.6-3.8c-0.5-1.7-2.3-2.7-4-2.1c-1.7,0.5-2.7,2.3-2.1,4
		c0.4,1.5,1.9,2.5,3.4,2.2l1.6,15.1l-10.6-10.9c1.1-1,1.3-2.8,0.4-4.1c-1-1.5-3-1.9-4.5-0.9s-1.9,3-0.9,4.5c0.8,1.3,2.6,1.7,3.9,1.2
		l7.8,15.1c0,0,0.8,4,0.8,7.6c0,3.6-3,3.6-3,6c0,2.3,10.7,3.2,15.9,3.2c5.2,0,15.9-0.8,15.9-3.2c0-2.3-3-2.3-3-6
		c0-3.7,0.8-7.6,0.8-7.6l7.8-15.1c1.4,0.6,3.1,0.1,3.9-1.2C371.8,512,371.4,510.1,370,509.1z"/>
</g>
<g id="D2">
	<rect x="378.7" y="490.9" fill="#EDE7D3" width="66.7" height="66.7"/>
	<path fill="#D33483" d="M436.8,509.1c-1.5-1-3.5-0.6-4.5,0.9c-0.8,1.3-0.6,3.1,0.4,4.1L422.1,525l1.6-15.1c1.5,0.2,3-0.7,3.4-2.2
		c0.5-1.7-0.4-3.5-2.1-4s-3.5,0.4-4,2.1c-0.4,1.5,0.3,3.1,1.6,3.8l-6.9,13.6l-2.8-15c1.5-0.3,2.7-1.5,2.7-3.2s-1.4-3.2-3.2-3.2
		s-3.2,1.4-3.2,3.2c0,1.5,1.1,2.9,2.7,3.2l-2.8,15l-6.9-13.6c1.3-0.7,2-2.2,1.6-3.8c-0.5-1.7-2.3-2.7-4-2.1c-1.7,0.5-2.7,2.3-2.1,4
		c0.4,1.5,1.9,2.5,3.4,2.2l1.6,15.1l-10.6-10.9c1.1-1,1.3-2.8,0.4-4.1c-1-1.5-3-1.9-4.5-0.9s-1.9,3-0.9,4.5c0.8,1.3,2.6,1.7,3.9,1.2
		l7.8,15.1c0,0,0.8,4,0.8,7.6c0,3.6-3,3.6-3,6c0,2.3,10.7,3.2,15.9,3.2s15.9-0.8,15.9-3.2c0-2.3-3-2.3-3-6c0-3.7,0.8-7.6,0.8-7.6
		l7.8-15.1c1.4,0.6,3.1,0.1,3.9-1.2C438.6,512,438.2,510.1,436.8,509.1z"/>
</g>
<g id="E2">
	<rect x="445.4" y="490.9" fill="#FDF6E3" width="66.7" height="66.7"/>
	<path fill="#D33483" d="M503.6,509.1c-1.5-1-3.5-0.6-4.5,0.9c-0.8,1.3-0.6,3.1,0.4,4.1L488.9,525l1.6-15.1c1.5,0.2,3-0.7,3.4-2.2
		c0.5-1.7-0.4-3.5-2.1-4s-3.5,0.4-4,2.1c-0.4,1.5,0.3,3.1,1.6,3.8l-6.9,13.6l-2.8-15c1.5-0.3,2.7-1.5,2.7-3.2s-1.4-3.2-3.2-3.2
		s-3.2,1.4-3.2,3.2c0,1.5,1.1,2.9,2.7,3.2l-2.8,15l-6.9-13.6c1.3-0.7,2-2.2,1.6-3.8c-0.5-1.7-2.3-2.7-4-2.1c-1.7,0.5-2.7,2.3-2.1,4
		c0.4,1.5,1.9,2.5,3.4,2.2l1.6,15.1l-10.6-10.9c1.1-1,1.3-2.8,0.4-4.1c-1-1.5-3-1.9-4.5-0.9s-1.9,3-0.9,4.5c0.8,1.3,2.6,1.7,3.9,1.2
		l7.8,15.1c0,0,0.8,4,0.8,7.6c0,3.6-3,3.6-3,6c0,2.3,10.7,3.2,15.9,3.2c5.2,0,15.9-0.8,15.9-3.2c0-2.3-3-2.3-3-6
		c0-3.7,0.8-7.6,0.8-7.6l7.8-15.1c1.4,0.6,3.1,0.1,3.9-1.2C505.5,512,505.1,510.1,503.6,509.1z"/>
</g>
<g id="F2">
	<rect x="512" y="490.9" fill="#EDE7D3" width="66.7" height="66.7"/>
	<path fill="#D33483" d="M570.5,509.1c-1.5-1-3.5-0.6-4.5,0.9c-0.8,1.3-0.6,3.1,0.4,4.1L555.8,525l1.6-15.1c1.5,0.2,3-0.7,3.4-2.2
		c0.5-1.7-0.4-3.5-2.1-4c-1.7-0.5-3.5,0.4-4,2.1c-0.4,1.5,0.3,3.1,1.6,3.8l-6.9,13.6l-2.8-15c1.5-0.3,2.7-1.5,2.7-3.2
		s-1.4-3.2-3.2-3.2c-1.7,0-3.2,1.4-3.2,3.2c0,1.5,1.1,2.9,2.7,3.2l-2.8,15l-6.9-13.6c1.3-0.7,2-2.2,1.6-3.8c-0.5-1.7-2.3-2.7-4-2.1
		c-1.7,0.5-2.7,2.3-2.1,4c0.4,1.5,1.9,2.5,3.4,2.2l1.6,15.1l-10.6-10.9c1.1-1,1.3-2.8,0.4-4.1c-1-1.5-3-1.9-4.5-0.9s-1.9,3-0.9,4.5
		c0.8,1.3,2.6,1.7,3.9,1.2l7.8,15.1c0,0,0.8,4,0.8,7.6c0,3.6-3,3.6-3,6c0,2.3,10.7,3.2,15.9,3.2s15.9-0.8,15.9-3.2c0-2.3-3-2.3-3-6
		c0-3.7,0.8-7.6,0.8-7.6l7.8-15.1c1.4,0.6,3.1,0.1,3.9-1.2C572.3,512,571.9,510.1,570.5,509.1z"/>
</g>
<g id="G2">
	<rect x="578.7" y="490.9" fill="#FDF6E3" width="66.7" height="66.7"/>
	<path fill="#D33483" d="M637.3,509.1c-1.5-1-3.5-0.6-4.5,0.9c-0.8,1.3-0.6,3.1,0.4,4.1L622.6,525l1.6-15.1c1.5,0.2,3-0.7,3.4-2.2
		c0.5-1.7-0.4-3.5-2.1-4c-1.7-0.5-3.5,0.4-4,2.1c-0.4,1.5,0.3,3.1,1.6,3.8l-6.9,13.6l-2.8-15c1.5-0.3,2.7-1.5,2.7-3.2
		s-1.4-3.2-3.2-3.2c-1.7,0-3.2,1.4-3.2,3.2c0,1.5,1.1,2.9,2.7,3.2l-2.8,15l-6.9-13.6c1.3-0.7,2-2.2,1.6-3.8c-0.5-1.7-2.3-2.7-4-2.1
		c-1.7,0.5-2.7,2.3-2.1,4c0.4,1.5,1.9,2.5,3.4,2.2l1.6,15.1l-10.6-10.9c1.1-1,1.3-2.8,0.4-4.1c-1-1.5-3-1.9-4.5-0.9s-1.9,3-0.9,4.5
		c0.8,1.3,2.6,1.7,3.9,1.2l7.8,15.1c0,0,0.8,4,0.8,7.6c0,3.6-3,3.6-3,6c0,2.3,10.7,3.2,15.9,3.2s15.9-0.8,15.9-3.2c0-2.3-3-2.3-3-6
		c0-3.7,0.8-7.6,0.8-7.6l7.8-15.1c1.4,0.6,3.1,0.1,3.9-1.2C639.1,512,638.7,510.1,637.3,509.1z"/>
</g>
<g id="H2">
	<rect x="645.3" y="490.9" fill="#EDE7D3" width="66.7" height="66.7"/>
	<path fill="#D33483" d="M704.1,509.1c-1.5-1-3.5-0.6-4.5,0.9c-0.8,1.3-0.6,3.1,0.4,4.1L689.4,525l1.6-15.1c1.5,0.2,3-0.7,3.4-2.2
		c0.5-1.7-0.4-3.5-2.1-4c-1.7-0.5-3.5,0.4-4,2.1c-0.4,1.5,0.3,3.1,1.6,3.8l-6.9,13.6l-2.8-15c1.5-0.3,2.7-1.5,2.7-3.2
		s-1.4-3.2-3.2-3.2c-1.7,0-3.2,1.4-3.2,3.2c0,1.5,1.1,2.9,2.7,3.2l-2.8,15l-6.9-13.6c1.3-0.7,2-2.2,1.6-3.8c-0.5-1.7-2.3-2.7-4-2.1
		c-1.7,0.5-2.7,2.3-2.1,4c0.4,1.5,1.9,2.5,3.4,2.2L670,525l-10.6-10.9c1.1-1,1.3-2.8,0.4-4.1c-1-1.5-3-1.9-4.5-0.9s-1.9,3-0.9,4.5
		c0.8,1.3,2.6,1.7,3.9,1.2l7.8,15.1c0,0,0.8,4,0.8,7.6c0,3.6-3,3.6-3,6c0,2.3,10.7,3.2,15.9,3.2s15.9-0.8,15.9-3.2c0-2.3-3-2.3-3-6
		c0-3.7,0.8-7.6,0.8-7.6l7.8-15.1c1.4,0.6,3.1,0.1,3.9-1.2C706,512,705.5,510.1,704.1,509.1z"/>
</g>
<g id="A3">
	<rect x="178.6" y="557.5" fill="#EDE7D3" width="66.7" height="66.7"/>
	<path fill="#D33483" d="M236.3,575.7c-1.5-1-3.5-0.6-4.5,0.9c-0.8,1.3-0.6,3.1,0.4,4.1l-10.6,10.9l1.6-15.1c1.5,0.2,3-0.7,3.4-2.2
		c0.5-1.7-0.4-3.5-2.1-4c-1.7-0.5-3.5,0.4-4,2.1c-0.4,1.5,0.3,3.1,1.6,3.8l-6.9,13.6l-2.8-15c1.5-0.3,2.7-1.5,2.7-3.2
		c0-1.7-1.4-3.2-3.2-3.2c-1.7,0-3.2,1.4-3.2,3.2c0,1.5,1.1,2.9,2.7,3.2l-2.8,15l-6.9-13.6c1.3-0.7,2-2.2,1.6-3.8
		c-0.5-1.7-2.3-2.7-4-2.1c-1.7,0.5-2.7,2.3-2.1,4c0.4,1.5,1.9,2.5,3.4,2.2l1.6,15.1l-10.6-10.9c1.1-1,1.3-2.8,0.4-4.1
		c-1-1.5-3-1.9-4.5-0.9s-1.9,3-0.9,4.5c0.8,1.3,2.6,1.7,3.9,1.2l7.8,15.1c0,0,0.8,4,0.8,7.6s-3,3.6-3,6c0,2.3,10.7,3.2,15.9,3.2
		s15.9-0.8,15.9-3.2c0-2.3-3-2.3-3-6c0-3.7,0.8-7.6,0.8-7.6l7.8-15.1c1.4,0.6,3.1,0.1,3.9-1.2C238.2,578.7,237.8,576.7,236.3,575.7z
		"/>
</g>
<g id="B3">
	<rect x="245.4" y="557.5" fill="#FDF6E3" width="66.7" height="66.7"/>
	<path fill="#D33483" d="M303.2,575.7c-1.5-1-3.5-0.6-4.5,0.9c-0.8,1.3-0.6,3.1,0.4,4.1l-10.6,10.9l1.6-15.1c1.5,0.2,3-0.7,3.4-2.2
		c0.5-1.7-0.4-3.5-2.1-4s-3.5,0.4-4,2.1c-0.4,1.5,0.3,3.1,1.6,3.8l-6.9,13.6l-2.8-15c1.5-0.3,2.7-1.5,2.7-3.2c0-1.7-1.4-3.2-3.2-3.2
		s-3.2,1.4-3.2,3.2c0,1.5,1.1,2.9,2.7,3.2l-2.8,15l-6.9-13.6c1.3-0.7,2-2.2,1.6-3.8c-0.5-1.7-2.3-2.7-4-2.1c-1.7,0.5-2.7,2.3-2.1,4
		c0.4,1.5,1.9,2.5,3.4,2.2l1.6,15.1l-10.6-10.9c1.1-1,1.3-2.8,0.4-4.1c-1-1.5-3-1.9-4.5-0.9s-1.9,3-0.9,4.5c0.8,1.3,2.6,1.7,3.9,1.2
		l7.8,15.1c0,0,0.8,4,0.8,7.6s-3,3.6-3,6c0,2.3,10.7,3.2,15.9,3.2s15.9-0.8,15.9-3.2c0-2.3-3-2.3-3-6c0-3.7,0.8-7.6,0.8-7.6
		l7.8-15.1c1.4,0.6,3.1,0.1,3.9-1.2C305,578.7,304.6,576.7,303.2,575.7z"/>
</g>
<g id="C3">
	<rect x="312.1" y="557.5" fill="#EDE7D3" width="66.7" height="66.7"/>
	<path fill="#D33483" d="M370,575.7c-1.5-1-3.5-0.6-4.5,0.9c-0.8,1.3-0.6,3.1,0.4,4.1l-10.6,10.9l1.6-15.1c1.5,0.2,3-0.7,3.4-2.2
		c0.5-1.7-0.4-3.5-2.1-4s-3.5,0.4-4,2.1c-0.4,1.5,0.3,3.1,1.6,3.8l-6.9,13.6l-2.8-15c1.5-0.3,2.7-1.5,2.7-3.2c0-1.7-1.4-3.2-3.2-3.2
		s-3.2,1.4-3.2,3.2c0,1.5,1.1,2.9,2.7,3.2l-2.8,15l-6.9-13.6c1.3-0.7,2-2.2,1.6-3.8c-0.5-1.7-2.3-2.7-4-2.1c-1.7,0.5-2.7,2.3-2.1,4
		c0.4,1.5,1.9,2.5,3.4,2.2l1.6,15.1l-10.6-10.9c1.1-1,1.3-2.8,0.4-4.1c-1-1.5-3-1.9-4.5-0.9s-1.9,3-0.9,4.5c0.8,1.3,2.6,1.7,3.9,1.2
		l7.8,15.1c0,0,0.8,4,0.8,7.6s-3,3.6-3,6c0,2.3,10.7,3.2,15.9,3.2c5.2,0,15.9-0.8,15.9-3.2c0-2.3-3-2.3-3-6c0-3.7,0.8-7.6,0.8-7.6
		l7.8-15.1c1.4,0.6,3.1,0.1,3.9-1.2C371.8,578.7,371.4,576.7,370,575.7z"/>
</g>
<g id="D3">
	<rect x="378.7" y="557.5" fill="#FDF6E3" width="66.7" height="66.7"/>
	<path fill="#D33483" d="M436.8,575.7c-1.5-1-3.5-0.6-4.5,0.9c-0.8,1.3-0.6,3.1,0.4,4.1l-10.6,10.9l1.6-15.1c1.5,0.2,3-0.7,3.4-2.2
		c0.5-1.7-0.4-3.5-2.1-4s-3.5,0.4-4,2.1c-0.4,1.5,0.3,3.1,1.6,3.8l-6.9,13.6l-2.8-15c1.5-0.3,2.7-1.5,2.7-3.2c0-1.7-1.4-3.2-3.2-3.2
		s-3.2,1.4-3.2,3.2c0,1.5,1.1,2.9,2.7,3.2l-2.8,15l-6.9-13.6c1.3-0.7,2-2.2,1.6-3.8c-0.5-1.7-2.3-2.7-4-2.1c-1.7,0.5-2.7,2.3-2.1,4
		c0.4,1.5,1.9,2.5,3.4,2.2l1.6,15.1l-10.6-10.9c1.1-1,1.3-2.8,0.4-4.1c-1-1.5-3-1.9-4.5-0.9s-1.9,3-0.9,4.5c0.8,1.3,2.6,1.7,3.9,1.2
		l7.8,15.1c0,0,0.8,4,0.8,7.6s-3,3.6-3,6c0,2.3,10.7,3.2,15.9,3.2s15.9-0.8,15.9-3.2c0-2.3-3-2.3-3-6c0-3.7,0.8-7.6,0.8-7.6
		l7.8-15.1c1.4,0.6,3.1,0.1,3.9-1.2C438.6,578.7,438.2,576.7,436.8,575.7z"/>
</g>
<g id="E3">
	<rect x="445.4" y="557.5" fill="#EDE7D3" width="66.7" height="66.7"/>
	<path fill="#D33483" d="M503.6,575.7c-1.5-1-3.5-0.6-4.5,0.9c-0.8,1.3-0.6,3.1,0.4,4.1l-10.6,10.9l1.6-15.1c1.5,0.2,3-0.7,3.4-2.2
		c0.5-1.7-0.4-3.5-2.1-4s-3.5,0.4-4,2.1c-0.4,1.5,0.3,3.1,1.6,3.8l-6.9,13.6l-2.8-15c1.5-0.3,2.7-1.5,2.7-3.2c0-1.7-1.4-3.2-3.2-3.2
		s-3.2,1.4-3.2,3.2c0,1.5,1.1,2.9,2.7,3.2l-2.8,15l-6.9-13.6c1.3-0.7,2-2.2,1.6-3.8c-0.5-1.7-2.3-2.7-4-2.1c-1.7,0.5-2.7,2.3-2.1,4
		c0.4,1.5,1.9,2.5,3.4,2.2l1.6,15.1l-10.6-10.9c1.1-1,1.3-2.8,0.4-4.1c-1-1.5-3-1.9-4.5-0.9s-1.9,3-0.9,4.5c0.8,1.3,2.6,1.7,3.9,1.2
		l7.8,15.1c0,0,0.8,4,0.8,7.6s-3,3.6-3,6c0,2.3,10.7,3.2,15.9,3.2c5.2,0,15.9-0.8,15.9-3.2c0-2.3-3-2.3-3-6c0-3.7,0.8-7.6,0.8-7.6
		l7.8-15.1c1.4,0.6,3.1,0.1,3.9-1.2C505.5,578.7,505.1,576.7,503.6,575.7z"/>
</g>
<g id="F3">
	<rect x="512" y="557.5" fill="#FDF6E3" width="66.7" height="66.7"/>
	<path fill="#D33483" d="M570.5,575.7c-1.5-1-3.5-0.6-4.5,0.9c-0.8,1.3-0.6,3.1,0.4,4.1l-10.6,10.9l1.6-15.1c1.5,0.2,3-0.7,3.4-2.2
		c0.5-1.7-0.4-3.5-2.1-4c-1.7-0.5-3.5,0.4-4,2.1c-0.4,1.5,0.3,3.1,1.6,3.8l-6.9,13.6l-2.8-15c1.5-0.3,2.7-1.5,2.7-3.2
		c0-1.7-1.4-3.2-3.2-3.2c-1.7,0-3.2,1.4-3.2,3.2c0,1.5,1.1,2.9,2.7,3.2l-2.8,15l-6.9-13.6c1.3-0.7,2-2.2,1.6-3.8
		c-0.5-1.7-2.3-2.7-4-2.1c-1.7,0.5-2.7,2.3-2.1,4c0.4,1.5,1.9,2.5,3.4,2.2l1.6,15.1l-10.6-10.9c1.1-1,1.3-2.8,0.4-4.1
		c-1-1.5-3-1.9-4.5-0.9s-1.9,3-0.9,4.5c0.8,1.3,2.6,1.7,3.9,1.2l7.8,15.1c0,0,0.8,4,0.8,7.6s-3,3.6-3,6c0,2.3,10.7,3.2,15.9,3.2
		s15.9-0.8,15.9-3.2c0-2.3-3-2.3-3-6c0-3.7,0.8-7.6,0.8-7.6l7.8-15.1c1.4,0.6,3.1,0.1,3.9-1.2C572.3,578.7,571.9,576.7,570.5,575.7z
		"/>
</g>
<g id="G3">
	<rect x="578.7" y="557.5" fill="#EDE7D3" width="66.7" height="66.7"/>
	<path fill="#D33483" d="M637.3,575.7c-1.5-1-3.5-0.6-4.5,0.9c-0.8,1.3-0.6,3.1,0.4,4.1l-10.6,10.9l1.6-15.1c1.5,0.2,3-0.7,3.4-2.2
		c0.5-1.7-0.4-3.5-2.1-4c-1.7-0.5-3.5,0.4-4,2.1c-0.4,1.5,0.3,3.1,1.6,3.8l-6.9,13.6l-2.8-15c1.5-0.3,2.7-1.5,2.7-3.2
		c0-1.7-1.4-3.2-3.2-3.2c-1.7,0-3.2,1.4-3.2,3.2c0,1.5,1.1,2.9,2.7,3.2l-2.8,15l-6.9-13.6c1.3-0.7,2-2.2,1.6-3.8
		c-0.5-1.7-2.3-2.7-4-2.1c-1.7,0.5-2.7,2.3-2.1,4c0.4,1.5,1.9,2.5,3.4,2.2l1.6,15.1l-10.6-10.9c1.1-1,1.3-2.8,0.4-4.1
		c-1-1.5-3-1.9-4.5-0.9s-1.9,3-0.9,4.5c0.8,1.3,2.6,1.7,3.9,1.2l7.8,15.1c0,0,0.8,4,0.8,7.6s-3,3.6-3,6c0,2.3,10.7,3.2,15.9,3.2
		s15.9-0.8,15.9-3.2c0-2.3-3-2.3-3-6c0-3.7,0.8-7.6,0.8-7.6l7.8-15.1c1.4,0.6,3.1,0.1,3.9-1.2C639.1,578.7,638.7,576.7,637.3,575.7z
		"/>
</g>
<g id="H3">
	<rect x="645.3" y="557.5" fill="#FDF6E3" width="66.7" height="66.7"/>
	<path fill="#D33483" d="M704.1,575.7c-1.5-1-3.5-0.6-4.5,0.9c-0.8,1.3-0.6,3.1,0.4,4.1l-10.6,10.9l1.6-15.1c1.5,0.2,3-0.7,3.4-2.2
		c0.5-1.7-0.4-3.5-2.1-4c-1.7-0.5-3.5,0.4-4,2.1c-0.4,1.5,0.3,3.1,1.6,3.8l-6.9,13.6l-2.8-15c1.5-0.3,2.7-1.5,2.7-3.2
		c0-1.7-1.4-3.2-3.2-3.2c-1.7,0-3.2,1.4-3.2,3.2c0,1.5,1.1,2.9,2.7,3.2l-2.8,15l-6.9-13.6c1.3-0.7,2-2.2,1.6-3.8
		c-0.5-1.7-2.3-2.7-4-2.1c-1.7,0.5-2.7,2.3-2.1,4c0.4,1.5,1.9,2.5,3.4,2.2l1.6,15.1l-10.6-10.9c1.1-1,1.3-2.8,0.4-4.1
		c-1-1.5-3-1.9-4.5-0.9s-1.9,3-0.9,4.5c0.8,1.3,2.6,1.7,3.9,1.2l7.8,15.1c0,0,0.8,4,0.8,7.6s-3,3.6-3,6c0,2.3,10.7,3.2,15.9,3.2
		s15.9-0.8,15.9-3.2c0-2.3-3-2.3-3-6c0-3.7,0.8-7.6,0.8-7.6l7.8-15.1c1.4,0.6,3.1,0.1,3.9-1.2C706,578.7,705.5,576.7,704.1,575.7z"
		/>
</g>
<g id="A4">
	<rect x="178.6" y="624.2" fill="#FDF6E3" width="66.7" height="66.7"/>
	<path fill="#D33483" d="M236.3,642.4c-1.5-1-3.5-0.6-4.5,0.9c-0.8,1.3-0.6,3.1,0.4,4.1l-10.6,10.9l1.6-15.1c1.5,0.2,3-0.7,3.4-2.2
		c0.5-1.7-0.4-3.5-2.1-4c-1.7-0.5-3.5,0.4-4,2.1c-0.4,1.5,0.3,3.1,1.6,3.8l-6.9,13.6l-2.8-15c1.5-0.3,2.7-1.5,2.7-3.2
		c0-1.7-1.4-3.2-3.2-3.2c-1.7,0-3.2,1.4-3.2,3.2c0,1.5,1.1,2.9,2.7,3.2l-2.8,15l-6.9-13.6c1.3-0.7,2-2.2,1.6-3.8
		c-0.5-1.7-2.3-2.7-4-2.1c-1.7,0.5-2.7,2.3-2.1,4c0.4,1.5,1.9,2.5,3.4,2.2l1.6,15.1l-10.6-10.9c1.1-1,1.3-2.8,0.4-4.1
		c-1-1.5-3-1.9-4.5-0.9s-1.9,3-0.9,4.5c0.8,1.3,2.6,1.7,3.9,1.2l7.8,15.1c0,0,0.8,4,0.8,7.6s-3,3.6-3,6c0,2.3,10.7,3.2,15.9,3.2
		s15.9-0.8,15.9-3.2c0-2.3-3-2.3-3-6c0-3.7,0.8-7.6,0.8-7.6l7.8-15.1c1.4,0.6,3.1,0.1,3.9-1.2C238.2,645.3,237.8,643.4,236.3,642.4z
		"/>
</g>
<g id="B4">
	<rect x="245.4" y="624.2" fill="#EDE7D3" width="66.7" height="66.7"/>
	<path fill="#D33483" d="M303.2,642.4c-1.5-1-3.5-0.6-4.5,0.9c-0.8,1.3-0.6,3.1,0.4,4.1l-10.6,10.9l1.6-15.1c1.5,0.2,3-0.7,3.4-2.2
		c0.5-1.7-0.4-3.5-2.1-4s-3.5,0.4-4,2.1c-0.4,1.5,0.3,3.1,1.6,3.8l-6.9,13.6l-2.8-15c1.5-0.3,2.7-1.5,2.7-3.2c0-1.7-1.4-3.2-3.2-3.2
		s-3.2,1.4-3.2,3.2c0,1.5,1.1,2.9,2.7,3.2l-2.8,15l-6.9-13.6c1.3-0.7,2-2.2,1.6-3.8c-0.5-1.7-2.3-2.7-4-2.1c-1.7,0.5-2.7,2.3-2.1,4
		c0.4,1.5,1.9,2.5,3.4,2.2l1.6,15.1l-10.7-10.9c1.1-1,1.3-2.8,0.4-4.1c-1-1.5-3-1.9-4.5-0.9s-1.9,3-0.9,4.5c0.8,1.3,2.6,1.7,3.9,1.2
		l7.8,15.1c0,0,0.8,4,0.8,7.6s-3,3.6-3,6c0,2.3,10.7,3.2,15.9,3.2s15.9-0.8,15.9-3.2c0-2.3-3-2.3-3-6c0-3.7,0.8-7.6,0.8-7.6
		l7.8-15.1c1.4,0.6,3.1,0.1,3.9-1.2C305,645.3,304.6,643.4,303.2,642.4z"/>
</g>
<g id="C4">
	<rect x="312.1" y="624.2" fill="#FDF6E3" width="66.7" height="66.7"/>
	<path fill="#D33483" d="M370,642.4c-1.5-1-3.5-0.6-4.5,0.9c-0.8,1.3-0.6,3.1,0.4,4.1l-10.6,10.9l1.6-15.1c1.5,0.2,3-0.7,3.4-2.2
		c0.5-1.7-0.4-3.5-2.1-4s-3.5,0.4-4,2.1c-0.4,1.5,0.3,3.1,1.6,3.8l-6.9,13.6l-2.8-15c1.5-0.3,2.7-1.5,2.7-3.2c0-1.7-1.4-3.2-3.2-3.2
		s-3.2,1.4-3.2,3.2c0,1.5,1.1,2.9,2.7,3.2l-2.8,15l-6.9-13.6c1.3-0.7,2-2.2,1.6-3.8c-0.5-1.7-2.3-2.7-4-2.1c-1.7,0.5-2.7,2.3-2.1,4
		c0.4,1.5,1.9,2.5,3.4,2.2l1.6,15.1l-10.6-10.9c1.1-1,1.3-2.8,0.4-4.1c-1-1.5-3-1.9-4.5-0.9s-1.9,3-0.9,4.5c0.8,1.3,2.6,1.7,3.9,1.2
		l7.8,15.1c0,0,0.8,4,0.8,7.6s-3,3.6-3,6c0,2.3,10.7,3.2,15.9,3.2c5.2,0,15.9-0.8,15.9-3.2c0-2.3-3-2.3-3-6c0-3.7,0.8-7.6,0.8-7.6
		l7.8-15.1c1.4,0.6,3.1,0.1,3.9-1.2C371.8,645.3,371.4,643.4,370,642.4z"/>
</g>
<g id="D4">
	<rect x="378.7" y="624.2" fill="#EDE7D3" width="66.7" height="66.7"/>
	<path fill="#D33483" d="M436.8,642.4c-1.5-1-3.5-0.6-4.5,0.9c-0.8,1.3-0.6,3.1,0.4,4.1l-10.6,10.9l1.6-15.1c1.5,0.2,3-0.7,3.4-2.2
		c0.5-1.7-0.4-3.5-2.1-4s-3.5,0.4-4,2.1c-0.4,1.5,0.3,3.1,1.6,3.8l-6.9,13.6l-2.8-15c1.5-0.3,2.7-1.5,2.7-3.2c0-1.7-1.4-3.2-3.2-3.2
		s-3.2,1.4-3.2,3.2c0,1.5,1.1,2.9,2.7,3.2l-2.8,15l-6.9-13.6c1.3-0.7,2-2.2,1.6-3.8c-0.5-1.7-2.3-2.7-4-2.1c-1.7,0.5-2.7,2.3-2.1,4
		c0.4,1.5,1.9,2.5,3.4,2.2l1.6,15.1l-10.6-10.9c1.1-1,1.3-2.8,0.4-4.1c-1-1.5-3-1.9-4.5-0.9s-1.9,3-0.9,4.5c0.8,1.3,2.6,1.7,3.9,1.2
		l7.8,15.1c0,0,0.8,4,0.8,7.6s-3,3.6-3,6c0,2.3,10.7,3.2,15.9,3.2s15.9-0.8,15.9-3.2c0-2.3-3-2.3-3-6c0-3.7,0.8-7.6,0.8-7.6
		l7.8-15.1c1.4,0.6,3.1,0.1,3.9-1.2C438.6,645.3,438.2,643.4,436.8,642.4z"/>
</g>
<g id="E4">
	<rect x="445.4" y="624.2" fill="#FDF6E3" width="66.7" height="66.7"/>
	<path fill="#D33483" d="M503.6,642.4c-1.5-1-3.5-0.6-4.5,0.9c-0.8,1.3-0.6,3.1,0.4,4.1l-10.6,10.9l1.6-15.1c1.5,0.2,3-0.7,3.4-2.2
		c0.5-1.7-0.4-3.5-2.1-4s-3.5,0.4-4,2.1c-0.4,1.5,0.3,3.1,1.6,3.8l-6.9,13.6l-2.8-15c1.5-0.3,2.7-1.5,2.7-3.2c0-1.7-1.4-3.2-3.2-3.2
		s-3.2,1.4-3.2,3.2c0,1.5,1.1,2.9,2.7,3.2l-2.8,15l-6.9-13.6c1.3-0.7,2-2.2,1.6-3.8c-0.5-1.7-2.3-2.7-4-2.1c-1.7,0.5-2.7,2.3-2.1,4
		c0.4,1.5,1.9,2.5,3.4,2.2l1.6,15.1l-10.6-10.9c1.1-1,1.3-2.8,0.4-4.1c-1-1.5-3-1.9-4.5-0.9s-1.9,3-0.9,4.5c0.8,1.3,2.6,1.7,3.9,1.2
		l7.8,15.1c0,0,0.8,4,0.8,7.6s-3,3.6-3,6c0,2.3,10.7,3.2,15.9,3.2c5.2,0,15.9-0.8,15.9-3.2c0-2.3-3-2.3-3-6c0-3.7,0.8-7.6,0.8-7.6
		l7.8-15.1c1.4,0.6,3.1,0.1,3.9-1.2C505.5,645.3,505.1,643.4,503.6,642.4z"/>
</g>
<g id="F4">
	<rect x="512" y="624.2" fill="#EDE7D3" width="66.7" height="66.7"/>
	<path fill="#D33483" d="M570.5,642.4c-1.5-1-3.5-0.6-4.5,0.9c-0.8,1.3-0.6,3.1,0.4,4.1l-10.6,10.9l1.6-15.1c1.5,0.2,3-0.7,3.4-2.2
		c0.5-1.7-0.4-3.5-2.1-4c-1.7-0.5-3.5,0.4-4,2.1c-0.4,1.5,0.3,3.1,1.6,3.8l-6.9,13.6l-2.8-15c1.5-0.3,2.7-1.5,2.7-3.2
		c0-1.7-1.4-3.2-3.2-3.2c-1.7,0-3.2,1.4-3.2,3.2c0,1.5,1.1,2.9,2.7,3.2l-2.8,15l-6.9-13.6c1.3-0.7,2-2.2,1.6-3.8
		c-0.5-1.7-2.3-2.7-4-2.1c-1.7,0.5-2.7,2.3-2.1,4c0.4,1.5,1.9,2.5,3.4,2.2l1.6,15.1l-10.7-10.9c1.1-1,1.3-2.8,0.4-4.1
		c-1-1.5-3-1.9-4.5-0.9s-1.9,3-0.9,4.5c0.8,1.3,2.6,1.7,3.9,1.2l7.8,15.1c0,0,0.8,4,0.8,7.6s-3,3.6-3,6c0,2.3,10.7,3.2,15.9,3.2
		s15.9-0.8,15.9-3.2c0-2.3-3-2.3-3-6c0-3.7,0.8-7.6,0.8-7.6l7.8-15.1c1.4,0.6,3.1,0.1,3.9-1.2C572.3,645.3,571.9,643.4,570.5,642.4z
		"/>
</g>
<g id="G4">
	<rect x="578.7" y="624.2" fill="#FDF6E3" width="66.7" height="66.7"/>
	<path fill="#D33483" d="M637.3,642.4c-1.5-1-3.5-0.6-4.5,0.9c-0.8,1.3-0.6,3.1,0.4,4.1l-10.6,10.9l1.6-15.1c1.5,0.2,3-0.7,3.4-2.2
		c0.5-1.7-0.4-3.5-2.1-4c-1.7-0.5-3.5,0.4-4,2.1c-0.4,1.5,0.3,3.1,1.6,3.8l-6.9,13.6l-2.8-15c1.5-0.3,2.7-1.5,2.7-3.2
		c0-1.7-1.4-3.2-3.2-3.2c-1.7,0-3.2,1.4-3.2,3.2c0,1.5,1.1,2.9,2.7,3.2l-2.8,15l-6.9-13.6c1.3-0.7,2-2.2,1.6-3.8
		c-0.5-1.7-2.3-2.7-4-2.1c-1.7,0.5-2.7,2.3-2.1,4c0.4,1.5,1.9,2.5,3.4,2.2l1.6,15.1l-10.6-10.9c1.1-1,1.3-2.8,0.4-4.1
		c-1-1.5-3-1.9-4.5-0.9s-1.9,3-0.9,4.5c0.8,1.3,2.6,1.7,3.9,1.2l7.8,15.1c0,0,0.8,4,0.8,7.6s-3,3.6-3,6c0,2.3,10.7,3.2,15.9,3.2
		s15.9-0.8,15.9-3.2c0-2.3-3-2.3-3-6c0-3.7,0.8-7.6,0.8-7.6l7.8-15.1c1.4,0.6,3.1,0.1,3.9-1.2C639.1,645.3,638.7,643.4,637.3,642.4z
		"/>
</g>
<g id="H4">
	<rect x="645.3" y="624.2" fill="#EDE7D3" width="66.7" height="66.7"/>
	<path fill="#D33483" d="M704.1,642.4c-1.5-1-3.5-0.6-4.5,0.9c-0.8,1.3-0.6,3.1,0.4,4.1l-10.6,10.9l1.6-15.1c1.5,0.2,3-0.7,3.4-2.2
		c0.5-1.7-0.4-3.5-2.1-4c-1.7-0.5-3.5,0.4-4,2.1c-0.4,1.5,0.3,3.1,1.6,3.8l-6.9,13.6l-2.8-15c1.5-0.3,2.7-1.5,2.7-3.2
		c0-1.7-1.4-3.2-3.2-3.2c-1.7,0-3.2,1.4-3.2,3.2c0,1.5,1.1,2.9,2.7,3.2l-2.8,15l-6.9-13.6c1.3-0.7,2-2.2,1.6-3.8
		c-0.5-1.7-2.3-2.7-4-2.1c-1.7,0.5-2.7,2.3-2.1,4c0.4,1.5,1.9,2.5,3.4,2.2l1.6,15.1l-10.6-10.9c1.1-1,1.3-2.8,0.4-4.1
		c-1-1.5-3-1.9-4.5-0.9s-1.9,3-0.9,4.5c0.8,1.3,2.6,1.7,3.9,1.2l7.8,15.1c0,0,0.8,4,0.8,7.6s-3,3.6-3,6c0,2.3,10.7,3.2,15.9,3.2
		s15.9-0.8,15.9-3.2c0-2.3-3-2.3-3-6c0-3.7,0.8-7.6,0.8-7.6l7.8-15.1c1.4,0.6,3.1,0.1,3.9-1.2C706,645.3,705.5,643.4,704.1,642.4z"
		/>
</g>
<g id="A5">
	<rect x="178.6" y="690.8" fill="#EDE7D3" width="66.7" height="66.7"/>
	<path fill="#D33483" d="M236.3,709c-1.5-1-3.5-0.6-4.5,0.9c-0.8,1.3-0.6,3.1,0.4,4.1l-10.6,10.9l1.6-15.1c1.5,0.2,3-0.7,3.4-2.2
		c0.5-1.7-0.4-3.5-2.1-4c-1.7-0.5-3.5,0.4-4,2.1c-0.4,1.5,0.3,3.1,1.6,3.8l-6.9,13.6l-2.8-15c1.5-0.3,2.7-1.5,2.7-3.2
		c0-1.7-1.4-3.2-3.2-3.2c-1.7,0-3.2,1.4-3.2,3.2c0,1.5,1.1,2.9,2.7,3.2l-2.8,15l-6.9-13.6c1.3-0.7,2-2.2,1.6-3.8
		c-0.5-1.7-2.3-2.7-4-2.1c-1.7,0.5-2.7,2.3-2.1,4c0.4,1.5,1.9,2.5,3.4,2.2l1.6,15.1L191.6,714c1.1-1,1.3-2.8,0.4-4.1
		c-1-1.5-3-1.9-4.5-0.9s-1.9,3-0.9,4.5c0.8,1.3,2.6,1.7,3.9,1.2l7.8,15.1c0,0,0.8,4,0.8,7.6s-3,3.6-3,6c0,2.3,10.7,3.2,15.9,3.2
		s15.9-0.8,15.9-3.2s-3-2.3-3-6c0-3.7,0.8-7.6,0.8-7.6l7.8-15.1c1.4,0.6,3.1,0.1,3.9-1.2C238.2,712,237.8,710,236.3,709z"/>
</g>
<g id="B5">
	<rect x="245.4" y="690.8" fill="#FDF6E3" width="66.7" height="66.7"/>
	<path fill="#D33483" d="M303.2,709c-1.5-1-3.5-0.6-4.5,0.9c-0.8,1.3-0.6,3.1,0.4,4.1l-10.6,10.9l1.6-15.1c1.5,0.2,3-0.7,3.4-2.2
		c0.5-1.7-0.4-3.5-2.1-4s-3.5,0.4-4,2.1c-0.4,1.5,0.3,3.1,1.6,3.8l-6.9,13.6l-2.8-15c1.5-0.3,2.7-1.5,2.7-3.2c0-1.7-1.4-3.2-3.2-3.2
		s-3.2,1.4-3.2,3.2c0,1.5,1.1,2.9,2.7,3.2l-2.8,15l-6.9-13.6c1.3-0.7,2-2.2,1.6-3.8c-0.5-1.7-2.3-2.7-4-2.1c-1.7,0.5-2.7,2.3-2.1,4
		c0.4,1.5,1.9,2.5,3.4,2.2l1.6,15.1L258.5,714c1.1-1,1.3-2.8,0.4-4.1c-1-1.5-3-1.9-4.5-0.9s-1.9,3-0.9,4.5c0.8,1.3,2.6,1.7,3.9,1.2
		l7.8,15.1c0,0,0.8,4,0.8,7.6s-3,3.6-3,6c0,2.3,10.7,3.2,15.9,3.2s15.9-0.8,15.9-3.2s-3-2.3-3-6c0-3.7,0.8-7.6,0.8-7.6l7.8-15.1
		c1.4,0.6,3.1,0.1,3.9-1.2C305,712,304.6,710,303.2,709z"/>
</g>
<g id="C5">
	<rect x="312.1" y="690.8" fill="#EDE7D3" width="66.7" height="66.7"/>
	<path fill="#D33483" d="M370,709c-1.5-1-3.5-0.6-4.5,0.9c-0.8,1.3-0.6,3.1,0.4,4.1l-10.6,10.9l1.6-15.1c1.5,0.2,3-0.7,3.4-2.2
		c0.5-1.7-0.4-3.5-2.1-4s-3.5,0.4-4,2.1c-0.4,1.5,0.3,3.1,1.6,3.8l-6.9,13.6l-2.8-15c1.5-0.3,2.7-1.5,2.7-3.2c0-1.7-1.4-3.2-3.2-3.2
		s-3.2,1.4-3.2,3.2c0,1.5,1.1,2.9,2.7,3.2l-2.8,15l-6.9-13.6c1.3-0.7,2-2.2,1.6-3.8c-0.5-1.7-2.3-2.7-4-2.1c-1.7,0.5-2.7,2.3-2.1,4
		c0.4,1.5,1.9,2.5,3.4,2.2l1.6,15.1L325.3,714c1.1-1,1.3-2.8,0.4-4.1c-1-1.5-3-1.9-4.5-0.9s-1.9,3-0.9,4.5c0.8,1.3,2.6,1.7,3.9,1.2
		l7.8,15.1c0,0,0.8,4,0.8,7.6s-3,3.6-3,6c0,2.3,10.7,3.2,15.9,3.2c5.2,0,15.9-0.8,15.9-3.2s-3-2.3-3-6c0-3.7,0.8-7.6,0.8-7.6
		l7.8-15.1c1.4,0.6,3.1,0.1,3.9-1.2C371.8,712,371.4,710,370,709z"/>
</g>
<g id="D5">
	<rect x="378.7" y="690.8" fill="#FDF6E3" width="66.7" height="66.7"/>
	<path fill="#D33483" d="M436.8,709c-1.5-1-3.5-0.6-4.5,0.9c-0.8,1.3-0.6,3.1,0.4,4.1l-10.6,10.9l1.6-15.1c1.5,0.2,3-0.7,3.4-2.2
		c0.5-1.7-0.4-3.5-2.1-4s-3.5,0.4-4,2.1c-0.4,1.5,0.3,3.1,1.6,3.8l-6.9,13.6l-2.8-15c1.5-0.3,2.7-1.5,2.7-3.2c0-1.7-1.4-3.2-3.2-3.2
		s-3.2,1.4-3.2,3.2c0,1.5,1.1,2.9,2.7,3.2l-2.8,15l-6.9-13.6c1.3-0.7,2-2.2,1.6-3.8c-0.5-1.7-2.3-2.7-4-2.1c-1.7,0.5-2.7,2.3-2.1,4
		c0.4,1.5,1.9,2.5,3.4,2.2l1.6,15.1L392.1,714c1.1-1,1.3-2.8,0.4-4.1c-1-1.5-3-1.9-4.5-0.9s-1.9,3-0.9,4.5c0.8,1.3,2.6,1.7,3.9,1.2
		l7.8,15.1c0,0,0.8,4,0.8,7.6s-3,3.6-3,6c0,2.3,10.7,3.2,15.9,3.2s15.9-0.8,15.9-3.2s-3-2.3-3-6c0-3.7,0.8-7.6,0.8-7.6l7.8-15.1
		c1.4,0.6,3.1,0.1,3.9-1.2C438.6,712,438.2,710,436.8,709z"/>
</g>
<g id="E5">
	<rect x="445.4" y="690.8" fill="#EDE7D3" width="66.7" height="66.7"/>
	<path fill="#D33483" d="M503.6,709c-1.5-1-3.5-0.6-4.5,0.9c-0.8,1.3-0.6,3.1,0.4,4.1l-10.6,10.9l1.6-15.1c1.5,0.2,3-0.7,3.4-2.2
		c0.5-1.7-0.4-3.5-2.1-4s-3.5,0.4-4,2.1c-0.4,1.5,0.3,3.1,1.6,3.8l-6.9,13.6l-2.8-15c1.5-0.3,2.7-1.5,2.7-3.2c0-1.7-1.4-3.2-3.2-3.2
		s-3.2,1.4-3.2,3.2c0,1.5,1.1,2.9,2.7,3.2l-2.8,15l-6.9-13.6c1.3-0.7,2-2.2,1.6-3.8c-0.5-1.7-2.3-2.7-4-2.1c-1.7,0.5-2.7,2.3-2.1,4
		c0.4,1.5,1.9,2.5,3.4,2.2l1.6,15.1L458.9,714c1.1-1,1.3-2.8,0.4-4.1c-1-1.5-3-1.9-4.5-0.9s-1.9,3-0.9,4.5c0.8,1.3,2.6,1.7,3.9,1.2
		l7.8,15.1c0,0,0.8,4,0.8,7.6s-3,3.6-3,6c0,2.3,10.7,3.2,15.9,3.2c5.2,0,15.9-0.8,15.9-3.2s-3-2.3-3-6c0-3.7,0.8-7.6,0.8-7.6
		l7.8-15.1c1.4,0.6,3.1,0.1,3.9-1.2C505.5,712,505.1,710,503.6,709z"/>
</g>
<g id="F5">
	<rect x="512" y="690.8" fill="#FDF6E3" width="66.7" height="66.7"/>
	<path fill="#D33483" d="M570.5,709c-1.5-1-3.5-0.6-4.5,0.9c-0.8,1.3-0.6,3.1,0.4,4.1l-10.6,10.9l1.6-15.1c1.5,0.2,3-0.7,3.4-2.2
		c0.5-1.7-0.4-3.5-2.1-4c-1.7-0.5-3.5,0.4-4,2.1c-0.4,1.5,0.3,3.1,1.6,3.8l-6.9,13.6l-2.8-15c1.5-0.3,2.7-1.5,2.7-3.2
		c0-1.7-1.4-3.2-3.2-3.2c-1.7,0-3.2,1.4-3.2,3.2c0,1.5,1.1,2.9,2.7,3.2l-2.8,15l-6.9-13.6c1.3-0.7,2-2.2,1.6-3.8
		c-0.5-1.7-2.3-2.7-4-2.1c-1.7,0.5-2.7,2.3-2.1,4c0.4,1.5,1.9,2.5,3.4,2.2l1.6,15.1L525.8,714c1.1-1,1.3-2.8,0.4-4.1
		c-1-1.5-3-1.9-4.5-0.9s-1.9,3-0.9,4.5c0.8,1.3,2.6,1.7,3.9,1.2l7.8,15.1c0,0,0.8,4,0.8,7.6s-3,3.6-3,6c0,2.3,10.7,3.2,15.9,3.2
		s15.9-0.8,15.9-3.2s-3-2.3-3-6c0-3.7,0.8-7.6,0.8-7.6l7.8-15.1c1.4,0.6,3.1,0.1,3.9-1.2C572.3,712,571.9,710,570.5,709z"/>
</g>
<g id="G5">
	<rect x="578.7" y="690.8" fill="#EDE7D3" width="66.7" height="66.7"/>
	<path fill="#D33483" d="M637.3,709c-1.5-1-3.5-0.6-4.5,0.9c-0.8,1.3-0.6,3.1,0.4,4.1l-10.6,10.9l1.6-15.1c1.5,0.2,3-0.7,3.4-2.2
		c0.5-1.7-0.4-3.5-2.1-4c-1.7-0.5-3.5,0.4-4,2.1c-0.4,1.5,0.3,3.1,1.6,3.8l-6.9,13.6l-2.8-15c1.5-0.3,2.7-1.5,2.7-3.2
		c0-1.7-1.4-3.2-3.2-3.2c-1.7,0-3.2,1.4-3.2,3.2c0,1.5,1.1,2.9,2.7,3.2l-2.8,15l-6.9-13.6c1.3-0.7,2-2.2,1.6-3.8
		c-0.5-1.7-2.3-2.7-4-2.1c-1.7,0.5-2.7,2.3-2.1,4c0.4,1.5,1.9,2.5,3.4,2.2l1.6,15.1L592.6,714c1.1-1,1.3-2.8,0.4-4.1
		c-1-1.5-3-1.9-4.5-0.9s-1.9,3-0.9,4.5c0.8,1.3,2.6,1.7,3.9,1.2l7.8,15.1c0,0,0.8,4,0.8,7.6s-3,3.6-3,6c0,2.3,10.7,3.2,15.9,3.2
		s15.9-0.8,15.9-3.2s-3-2.3-3-6c0-3.7,0.8-7.6,0.8-7.6l7.8-15.1c1.4,0.6,3.1,0.1,3.9-1.2C639.1,712,638.7,710,637.3,709z"/>
</g>
<g id="H5">
	<rect x="645.3" y="690.8" fill="#FDF6E3" width="66.7" height="66.7"/>
	<path fill="#D33483" d="M704.1,709c-1.5-1-3.5-0.6-4.5,0.9c-0.8,1.3-0.6,3.1,0.4,4.1l-10.6,10.9l1.6-15.1c1.5,0.2,3-0.7,3.4-2.2
		c0.5-1.7-0.4-3.5-2.1-4s-3.5,0.4-4,2.1c-0.4,1.5,0.3,3.1,1.6,3.8l-6.9,13.6l-2.8-15c1.5-0.3,2.7-1.5,2.7-3.2c0-1.7-1.4-3.2-3.2-3.2
		c-1.7,0-3.2,1.4-3.2,3.2c0,1.5,1.1,2.9,2.7,3.2l-2.8,15l-6.9-13.6c1.3-0.7,2-2.2,1.6-3.8c-0.5-1.7-2.3-2.7-4-2.1
		c-1.7,0.5-2.7,2.3-2.1,4c0.4,1.5,1.9,2.5,3.4,2.2l1.6,15.1L659.4,714c1.1-1,1.3-2.8,0.4-4.1c-1-1.5-3-1.9-4.5-0.9s-1.9,3-0.9,4.5
		c0.8,1.3,2.6,1.7,3.9,1.2l7.8,15.1c0,0,0.8,4,0.8,7.6s-3,3.6-3,6c0,2.3,10.7,3.2,15.9,3.2s15.9-0.8,15.9-3.2s-3-2.3-3-6
		c0-3.7,0.8-7.6,0.8-7.6l7.8-15.1c1.4,0.6,3.1,0.1,3.9-1.2C706,712,705.5,710,704.1,709z"/>
</g>
<g id="A6">
	<rect x="178.6" y="757.5" fill="#FDF6E3" width="66.7" height="66.7"/>
	<path fill="#D33483" d="M236.3,775.7c-1.5-1-3.5-0.6-4.5,0.9c-0.8,1.3-0.6,3.1,0.4,4.1l-10.6,10.9l1.6-15.1c1.5,0.2,3-0.7,3.4-2.2
		c0.5-1.7-0.4-3.5-2.1-4c-1.7-0.5-3.5,0.4-4,2.1c-0.4,1.5,0.3,3.1,1.6,3.8l-6.9,13.6l-2.8-15c1.5-0.3,2.7-1.5,2.7-3.2
		c0-1.7-1.4-3.2-3.2-3.2c-1.7,0-3.2,1.4-3.2,3.2c0,1.5,1.1,2.9,2.7,3.2l-2.8,15l-6.9-13.6c1.3-0.7,2-2.2,1.6-3.8
		c-0.5-1.7-2.3-2.7-4-2.1c-1.7,0.5-2.7,2.3-2.1,4c0.4,1.5,1.9,2.5,3.4,2.2l1.6,15.1l-10.6-10.9c1.1-1,1.3-2.8,0.4-4.1
		c-1-1.5-3-1.9-4.5-0.9s-1.9,3-0.9,4.5c0.8,1.3,2.6,1.7,3.9,1.2l7.8,15.1c0,0,0.8,4,0.8,7.6s-3,3.6-3,6c0,2.3,10.7,3.2,15.9,3.2
		s15.9-0.8,15.9-3.2s-3-2.3-3-6c0-3.7,0.8-7.6,0.8-7.6l7.8-15.1c1.4,0.6,3.1,0.1,3.9-1.2C238.2,778.6,237.8,776.7,236.3,775.7z"/>
</g>
<g id="B6">
	<rect x="245.4" y="757.5" fill="#EDE7D3" width="66.7" height="66.7"/>
	<path fill="#D33483" d="M303.2,775.7c-1.5-1-3.5-0.6-4.5,0.9c-0.8,1.3-0.6,3.1,0.4,4.1l-10.6,10.9l1.6-15.1c1.5,0.2,3-0.7,3.4-2.2
		c0.5-1.7-0.4-3.5-2.1-4s-3.5,0.4-4,2.1c-0.4,1.5,0.3,3.1,1.6,3.8l-6.9,13.6l-2.8-15c1.5-0.3,2.7-1.5,2.7-3.2c0-1.7-1.4-3.2-3.2-3.2
		s-3.2,1.4-3.2,3.2c0,1.5,1.1,2.9,2.7,3.2l-2.8,15l-6.9-13.6c1.3-0.7,2-2.2,1.6-3.8c-0.5-1.7-2.3-2.7-4-2.1c-1.7,0.5-2.7,2.3-2.1,4
		c0.4,1.5,1.9,2.5,3.4,2.2l1.6,15.1l-10.6-10.9c1.1-1,1.3-2.8,0.4-4.1c-1-1.5-3-1.9-4.5-0.9s-1.9,3-0.9,4.5c0.8,1.3,2.6,1.7,3.9,1.2
		l7.8,15.1c0,0,0.8,4,0.8,7.6s-3,3.6-3,6c0,2.3,10.7,3.2,15.9,3.2s15.9-0.8,15.9-3.2s-3-2.3-3-6c0-3.7,0.8-7.6,0.8-7.6l7.8-15.1
		c1.4,0.6,3.1,0.1,3.9-1.2C305,778.6,304.6,776.7,303.2,775.7z"/>
</g>
<g id="C6">
	<rect x="312.1" y="757.5" fill="#FDF6E3" width="66.7" height="66.7"/>
	<path fill="#D33483" d="M370,775.7c-1.5-1-3.5-0.6-4.5,0.9c-0.8,1.3-0.6,3.1,0.4,4.1l-10.6,10.9l1.6-15.1c1.5,0.2,3-0.7,3.4-2.2
		c0.5-1.7-0.4-3.5-2.1-4s-3.5,0.4-4,2.1c-0.4,1.5,0.3,3.1,1.6,3.8l-6.9,13.6l-2.8-15c1.5-0.3,2.7-1.5,2.7-3.2c0-1.7-1.4-3.2-3.2-3.2
		s-3.2,1.4-3.2,3.2c0,1.5,1.1,2.9,2.7,3.2l-2.8,15l-6.9-13.6c1.3-0.7,2-2.2,1.6-3.8c-0.5-1.7-2.3-2.7-4-2.1c-1.7,0.5-2.7,2.3-2.1,4
		c0.4,1.5,1.9,2.5,3.4,2.2l1.6,15.1l-10.6-10.9c1.1-1,1.3-2.8,0.4-4.1c-1-1.5-3-1.9-4.5-0.9s-1.9,3-0.9,4.5c0.8,1.3,2.6,1.7,3.9,1.2
		l7.8,15.1c0,0,0.8,4,0.8,7.6s-3,3.6-3,6c0,2.3,10.7,3.2,15.9,3.2c5.2,0,15.9-0.8,15.9-3.2s-3-2.3-3-6c0-3.7,0.8-7.6,0.8-7.6
		l7.8-15.1c1.4,0.6,3.1,0.1,3.9-1.2C371.8,778.6,371.4,776.7,370,775.7z"/>
</g>
<g id="D6">
	<rect x="378.7" y="757.5" fill="#EDE7D3" width="66.7" height="66.7"/>
	<path fill="#D33483" d="M436.8,775.7c-1.5-1-3.5-0.6-4.5,0.9c-0.8,1.3-0.6,3.1,0.4,4.1l-10.6,10.9l1.6-15.1c1.5,0.2,3-0.7,3.4-2.2
		c0.5-1.7-0.4-3.5-2.1-4s-3.5,0.4-4,2.1c-0.4,1.5,0.3,3.1,1.6,3.8l-6.9,13.6l-2.8-15c1.5-0.3,2.7-1.5,2.7-3.2c0-1.7-1.4-3.2-3.2-3.2
		s-3.2,1.4-3.2,3.2c0,1.5,1.1,2.9,2.7,3.2l-2.8,15l-6.9-13.6c1.3-0.7,2-2.2,1.6-3.8c-0.5-1.7-2.3-2.7-4-2.1c-1.7,0.5-2.7,2.3-2.1,4
		c0.4,1.5,1.9,2.5,3.4,2.2l1.6,15.1l-10.6-10.9c1.1-1,1.3-2.8,0.4-4.1c-1-1.5-3-1.9-4.5-0.9s-1.9,3-0.9,4.5c0.8,1.3,2.6,1.7,3.9,1.2
		l7.8,15.1c0,0,0.8,4,0.8,7.6s-3,3.6-3,6c0,2.3,10.7,3.2,15.9,3.2s15.9-0.8,15.9-3.2s-3-2.3-3-6c0-3.7,0.8-7.6,0.8-7.6l7.8-15.1
		c1.4,0.6,3.1,0.1,3.9-1.2C438.6,778.6,438.2,776.7,436.8,775.7z"/>
</g>
<g id="E6">
	<rect x="445.4" y="757.5" fill="#FDF6E3" width="66.7" height="66.7"/>
	<path fill="#D33483" d="M503.6,775.7c-1.5-1-3.5-0.6-4.5,0.9c-0.8,1.3-0.6,3.1,0.4,4.1l-10.6,10.9l1.6-15.1c1.5,0.2,3-0.7,3.4-2.2
		c0.5-1.7-0.4-3.5-2.1-4s-3.5,0.4-4,2.1c-0.4,1.5,0.3,3.1,1.6,3.8l-6.9,13.6l-2.8-15c1.5-0.3,2.7-1.5,2.7-3.2c0-1.7-1.4-3.2-3.2-3.2
		s-3.2,1.4-3.2,3.2c0,1.5,1.1,2.9,2.7,3.2l-2.8,15l-6.9-13.6c1.3-0.7,2-2.2,1.6-3.8c-0.5-1.7-2.3-2.7-4-2.1c-1.7,0.5-2.7,2.3-2.1,4
		c0.4,1.5,1.9,2.5,3.4,2.2l1.6,15.1l-10.6-10.9c1.1-1,1.3-2.8,0.4-4.1c-1-1.5-3-1.9-4.5-0.9s-1.9,3-0.9,4.5c0.8,1.3,2.6,1.7,3.9,1.2
		l7.8,15.1c0,0,0.8,4,0.8,7.6s-3,3.6-3,6c0,2.3,10.7,3.2,15.9,3.2c5.2,0,15.9-0.8,15.9-3.2s-3-2.3-3-6c0-3.7,0.8-7.6,0.8-7.6
		l7.8-15.1c1.4,0.6,3.1,0.1,3.9-1.2C505.5,778.6,505.1,776.7,503.6,775.7z"/>
</g>
<g id="F6">
	<rect x="512" y="757.5" fill="#EDE7D3" width="66.7" height="66.7"/>
	<path fill="#D33483" d="M570.5,775.7c-1.5-1-3.5-0.6-4.5,0.9c-0.8,1.3-0.6,3.1,0.4,4.1l-10.6,10.9l1.6-15.1c1.5,0.2,3-0.7,3.4-2.2
		c0.5-1.7-0.4-3.5-2.1-4c-1.7-0.5-3.5,0.4-4,2.1c-0.4,1.5,0.3,3.1,1.6,3.8l-6.9,13.6l-2.8-15c1.5-0.3,2.7-1.5,2.7-3.2
		c0-1.7-1.4-3.2-3.2-3.2c-1.7,0-3.2,1.4-3.2,3.2c0,1.5,1.1,2.9,2.7,3.2l-2.8,15l-6.9-13.6c1.3-0.7,2-2.2,1.6-3.8
		c-0.5-1.7-2.3-2.7-4-2.1c-1.7,0.5-2.7,2.3-2.1,4c0.4,1.5,1.9,2.5,3.4,2.2l1.6,15.1l-10.6-10.9c1.1-1,1.3-2.8,0.4-4.1
		c-1-1.5-3-1.9-4.5-0.9s-1.9,3-0.9,4.5c0.8,1.3,2.6,1.7,3.9,1.2l7.8,15.1c0,0,0.8,4,0.8,7.6s-3,3.6-3,6c0,2.3,10.7,3.2,15.9,3.2
		s15.9-0.8,15.9-3.2s-3-2.3-3-6c0-3.7,0.8-7.6,0.8-7.6l7.8-15.1c1.4,0.6,3.1,0.1,3.9-1.2C572.3,778.6,571.9,776.7,570.5,775.7z"/>
</g>
<g id="G6">
	<rect x="578.7" y="757.5" fill="#FDF6E3" width="66.7" height="66.7"/>
	<path fill="#D33483" d="M637.3,775.7c-1.5-1-3.5-0.6-4.5,0.9c-0.8,1.3-0.6,3.1,0.4,4.1l-10.6,10.9l1.6-15.1c1.5,0.2,3-0.7,3.4-2.2
		c0.5-1.7-0.4-3.5-2.1-4c-1.7-0.5-3.5,0.4-4,2.1c-0.4,1.5,0.3,3.1,1.6,3.8l-6.9,13.6l-2.8-15c1.5-0.3,2.7-1.5,2.7-3.2
		c0-1.7-1.4-3.2-3.2-3.2c-1.7,0-3.2,1.4-3.2,3.2c0,1.5,1.1,2.9,2.7,3.2l-2.8,15l-6.9-13.6c1.3-0.7,2-2.2,1.6-3.8
		c-0.5-1.7-2.3-2.7-4-2.1c-1.7,0.5-2.7,2.3-2.1,4c0.4,1.5,1.9,2.5,3.4,2.2l1.6,15.1l-10.6-10.9c1.1-1,1.3-2.8,0.4-4.1
		c-1-1.5-3-1.9-4.5-0.9s-1.9,3-0.9,4.5c0.8,1.3,2.6,1.7,3.9,1.2l7.8,15.1c0,0,0.8,4,0.8,7.6s-3,3.6-3,6c0,2.3,10.7,3.2,15.9,3.2
		s15.9-0.8,15.9-3.2s-3-2.3-3-6c0-3.7,0.8-7.6,0.8-7.6l7.8-15.1c1.4,0.6,3.1,0.1,3.9-1.2C639.1,778.6,638.7,776.7,637.3,775.7z"/>
</g>
<g id="H6">
	<rect x="645.3" y="757.5" fill="#EDE7D3" width="66.7" height="66.7"/>
	<path fill="#D33483" d="M704.1,775.7c-1.5-1-3.5-0.6-4.5,0.9c-0.8,1.3-0.6,3.1,0.4,4.1l-10.6,10.9l1.6-15.1c1.5,0.2,3-0.7,3.4-2.2
		c0.5-1.7-0.4-3.5-2.1-4s-3.5,0.4-4,2.1c-0.4,1.5,0.3,3.1,1.6,3.8l-6.9,13.6l-2.8-15c1.5-0.3,2.7-1.5,2.7-3.2c0-1.7-1.4-3.2-3.2-3.2
		c-1.7,0-3.2,1.4-3.2,3.2c0,1.5,1.1,2.9,2.7,3.2l-2.8,15l-6.9-13.6c1.3-0.7,2-2.2,1.6-3.8c-0.5-1.7-2.3-2.7-4-2.1
		c-1.7,0.5-2.7,2.3-2.1,4c0.4,1.5,1.9,2.5,3.4,2.2l1.6,15.1l-10.6-10.9c1.1-1,1.3-2.8,0.4-4.1c-1-1.5-3-1.9-4.5-0.9s-1.9,3-0.9,4.5
		c0.8,1.3,2.6,1.7,3.9,1.2l7.8,15.1c0,0,0.8,4,0.8,7.6s-3,3.6-3,6c0,2.3,10.7,3.2,15.9,3.2s15.9-0.8,15.9-3.2s-3-2.3-3-6
		c0-3.7,0.8-7.6,0.8-7.6l7.8-15.1c1.4,0.6,3.1,0.1,3.9-1.2C706,778.6,705.5,776.7,704.1,775.7z"/>
</g>
<g id="A7">
	<rect x="178.6" y="824.2" fill="#EDE7D3" width="66.7" height="66.7"/>
	<path fill="#D33483" d="M236.3,842.3c-1.5-1-3.5-0.6-4.5,0.9c-0.8,1.3-0.6,3.1,0.4,4.1l-10.6,10.9l1.6-15.1c1.5,0.2,3-0.7,3.4-2.2
		c0.5-1.7-0.4-3.5-2.1-4c-1.7-0.5-3.5,0.4-4,2.1c-0.4,1.5,0.3,3.1,1.6,3.8l-6.9,13.6l-2.8-15c1.5-0.3,2.7-1.5,2.7-3.2
		c0-1.7-1.4-3.2-3.2-3.2c-1.7,0-3.2,1.4-3.2,3.2c0,1.5,1.1,2.9,2.7,3.2l-2.8,15l-6.9-13.6c1.3-0.7,2-2.2,1.6-3.8
		c-0.5-1.7-2.3-2.7-4-2.1c-1.7,0.5-2.7,2.3-2.1,4c0.4,1.5,1.9,2.5,3.4,2.2l1.6,15.1l-10.6-10.9c1.1-1,1.3-2.8,0.4-4.1
		c-1-1.5-3-1.9-4.5-0.9s-1.9,3-0.9,4.5c0.8,1.3,2.6,1.7,3.9,1.2l7.8,15.1c0,0,0.8,4,0.8,7.6s-3,3.6-3,6c0,2.3,10.7,3.2,15.9,3.2
		s15.9-0.8,15.9-3.2c0-2.3-3-2.3-3-6c0-3.7,0.8-7.6,0.8-7.6l7.8-15.1c1.4,0.6,3.1,0.1,3.9-1.2C238.2,845.3,237.8,843.3,236.3,842.3z
		"/>
</g>
<g id="B7">
	<rect x="245.4" y="824.2" fill="#FDF6E3" width="66.7" height="66.7"/>
	<path fill="#D33483" d="M303.2,842.3c-1.5-1-3.5-0.6-4.5,0.9c-0.8,1.3-0.6,3.1,0.4,4.1l-10.6,10.9l1.6-15.1c1.5,0.2,3-0.7,3.4-2.2
		c0.5-1.7-0.4-3.5-2.1-4s-3.5,0.4-4,2.1c-0.4,1.5,0.3,3.1,1.6,3.8l-7,13.6l-2.8-15c1.5-0.3,2.7-1.5,2.7-3.2c0-1.7-1.4-3.2-3.2-3.2
		s-3.2,1.4-3.2,3.2c0,1.5,1.1,2.9,2.7,3.2l-2.8,15l-6.9-13.6c1.3-0.7,2-2.2,1.6-3.8c-0.5-1.7-2.3-2.7-4-2.1c-1.7,0.5-2.7,2.3-2.1,4
		c0.4,1.5,1.9,2.5,3.4,2.2l1.6,15.1l-10.6-10.9c1.1-1,1.3-2.8,0.4-4.1c-1-1.5-3-1.9-4.5-0.9s-1.9,3-0.9,4.5c0.8,1.3,2.6,1.7,3.9,1.2
		l7.8,15.1c0,0,0.8,4,0.8,7.6s-3,3.6-3,6c0,2.3,10.7,3.2,15.9,3.2s15.9-0.8,15.9-3.2c0-2.3-3-2.3-3-6c0-3.7,0.8-7.6,0.8-7.6
		l7.8-15.1c1.4,0.6,3.1,0.1,3.9-1.2C305,845.3,304.6,843.3,303.2,842.3z"/>
</g>
<g id="C7">
	<rect x="312.1" y="824.2" fill="#EDE7D3" width="66.7" height="66.7"/>
	<path fill="#D33483" d="M370,842.3c-1.5-1-3.5-0.6-4.5,0.9c-0.8,1.3-0.6,3.1,0.4,4.1l-10.6,10.9l1.6-15.1c1.5,0.2,3-0.7,3.4-2.2
		c0.5-1.7-0.4-3.5-2.1-4s-3.5,0.4-4,2.1c-0.4,1.5,0.3,3.1,1.6,3.8l-6.9,13.6l-2.8-15c1.5-0.3,2.7-1.5,2.7-3.2c0-1.7-1.4-3.2-3.2-3.2
		s-3.2,1.4-3.2,3.2c0,1.5,1.1,2.9,2.7,3.2l-2.8,15l-6.9-13.6c1.3-0.7,2-2.2,1.6-3.8c-0.5-1.7-2.3-2.7-4-2.1c-1.7,0.5-2.7,2.3-2.1,4
		c0.4,1.5,1.9,2.5,3.4,2.2l1.6,15.1l-10.6-10.9c1.1-1,1.3-2.8,0.4-4.1c-1-1.5-3-1.9-4.5-0.9s-1.9,3-0.9,4.5c0.8,1.3,2.6,1.7,3.9,1.2
		l7.8,15.1c0,0,0.8,4,0.8,7.6s-3,3.6-3,6c0,2.3,10.7,3.2,15.9,3.2c5.2,0,15.9-0.8,15.9-3.2c0-2.3-3-2.3-3-6c0-3.7,0.8-7.6,0.8-7.6
		l7.8-15.1c1.4,0.6,3.1,0.1,3.9-1.2C371.8,845.3,371.4,843.3,370,842.3z"/>
</g>
<g id="D7">
	<rect x="378.7" y="824.2" fill="#FDF6E3" width="66.7" height="66.7"/>
	<path fill="#D33483" d="M436.8,842.3c-1.5-1-3.5-0.6-4.5,0.9c-0.8,1.3-0.6,3.1,0.4,4.1l-10.6,10.9l1.6-15.1c1.5,0.2,3-0.7,3.4-2.2
		c0.5-1.7-0.4-3.5-2.1-4s-3.5,0.4-4,2.1c-0.4,1.5,0.3,3.1,1.6,3.8l-6.9,13.6l-2.8-15c1.5-0.3,2.7-1.5,2.7-3.2c0-1.7-1.4-3.2-3.2-3.2
		s-3.2,1.4-3.2,3.2c0,1.5,1.1,2.9,2.7,3.2l-2.8,15l-6.9-13.6c1.3-0.7,2-2.2,1.6-3.8c-0.5-1.7-2.3-2.7-4-2.1c-1.7,0.5-2.7,2.3-2.1,4
		c0.4,1.5,1.9,2.5,3.4,2.2l1.6,15.1l-10.6-10.9c1.1-1,1.3-2.8,0.4-4.1c-1-1.5-3-1.9-4.5-0.9s-1.9,3-0.9,4.5c0.8,1.3,2.6,1.7,3.9,1.2
		l7.8,15.1c0,0,0.8,4,0.8,7.6s-3,3.6-3,6c0,2.3,10.7,3.2,15.9,3.2s15.9-0.8,15.9-3.2c0-2.3-3-2.3-3-6c0-3.7,0.8-7.6,0.8-7.6L434,848
		c1.4,0.6,3.1,0.1,3.9-1.2C438.6,845.3,438.2,843.3,436.8,842.3z"/>
</g>
<g id="E7">
	<rect x="445.4" y="824.2" fill="#EDE7D3" width="66.7" height="66.7"/>
	<path fill="#D33483" d="M503.6,842.3c-1.5-1-3.5-0.6-4.5,0.9c-0.8,1.3-0.6,3.1,0.4,4.1l-10.6,10.9l1.6-15.1c1.5,0.2,3-0.7,3.4-2.2
		c0.5-1.7-0.4-3.5-2.1-4s-3.5,0.4-4,2.1c-0.4,1.5,0.3,3.1,1.6,3.8l-6.9,13.6l-2.8-15c1.5-0.3,2.7-1.5,2.7-3.2c0-1.7-1.4-3.2-3.2-3.2
		s-3.2,1.4-3.2,3.2c0,1.5,1.1,2.9,2.7,3.2l-2.8,15l-6.9-13.6c1.3-0.7,2-2.2,1.6-3.8c-0.5-1.7-2.3-2.7-4-2.1c-1.7,0.5-2.7,2.3-2.1,4
		c0.4,1.5,1.9,2.5,3.4,2.2l1.6,15.1l-10.6-10.9c1.1-1,1.3-2.8,0.4-4.1c-1-1.5-3-1.9-4.5-0.9s-1.9,3-0.9,4.5c0.8,1.3,2.6,1.7,3.9,1.2
		l7.8,15.1c0,0,0.8,4,0.8,7.6s-3,3.6-3,6c0,2.3,10.7,3.2,15.9,3.2c5.2,0,15.9-0.8,15.9-3.2c0-2.3-3-2.3-3-6c0-3.7,0.8-7.6,0.8-7.6
		l7.8-15.1c1.4,0.6,3.1,0.1,3.9-1.2C505.5,845.3,505.1,843.3,503.6,842.3z"/>
</g>
<g id="F7">
	<rect x="512" y="824.2" fill="#FDF6E3" width="66.7" height="66.7"/>
	<path fill="#D33483" d="M570.5,842.3c-1.5-1-3.5-0.6-4.5,0.9c-0.8,1.3-0.6,3.1,0.4,4.1l-10.6,10.9l1.6-15.1c1.5,0.2,3-0.7,3.4-2.2
		c0.5-1.7-0.4-3.5-2.1-4c-1.7-0.5-3.5,0.4-4,2.1c-0.4,1.5,0.3,3.1,1.6,3.8l-6.9,13.6l-2.8-15c1.5-0.3,2.7-1.5,2.7-3.2
		c0-1.7-1.4-3.2-3.2-3.2c-1.7,0-3.2,1.4-3.2,3.2c0,1.5,1.1,2.9,2.7,3.2l-2.8,15l-6.9-13.6c1.3-0.7,2-2.2,1.6-3.8
		c-0.5-1.7-2.3-2.7-4-2.1c-1.7,0.5-2.7,2.3-2.1,4c0.4,1.5,1.9,2.5,3.4,2.2l1.6,15.1l-10.6-10.9c1.1-1,1.3-2.8,0.4-4.1
		c-1-1.5-3-1.9-4.5-0.9s-1.9,3-0.9,4.5c0.8,1.3,2.6,1.7,3.9,1.2l7.8,15.1c0,0,0.8,4,0.8,7.6s-3,3.6-3,6c0,2.3,10.7,3.2,15.9,3.2
		s15.9-0.8,15.9-3.2c0-2.3-3-2.3-3-6c0-3.7,0.8-7.6,0.8-7.6l7.8-15.1c1.4,0.6,3.1,0.1,3.9-1.2C572.3,845.3,571.9,843.3,570.5,842.3z
		"/>
</g>
<g id="G7">
	<rect x="578.7" y="824.2" fill="#EDE7D3" width="66.7" height="66.7"/>
	<path fill="#D33483" d="M637.3,842.3c-1.5-1-3.5-0.6-4.5,0.9c-0.8,1.3-0.6,3.1,0.4,4.1l-10.6,10.9l1.6-15.1c1.5,0.2,3-0.7,3.4-2.2
		c0.5-1.7-0.4-3.5-2.1-4c-1.7-0.5-3.5,0.4-4,2.1c-0.4,1.5,0.3,3.1,1.6,3.8l-6.9,13.6l-2.8-15c1.5-0.3,2.7-1.5,2.7-3.2
		c0-1.7-1.4-3.2-3.2-3.2c-1.7,0-3.2,1.4-3.2,3.2c0,1.5,1.1,2.9,2.7,3.2l-2.8,15l-6.9-13.6c1.3-0.7,2-2.2,1.6-3.8
		c-0.5-1.7-2.3-2.7-4-2.1c-1.7,0.5-2.7,2.3-2.1,4c0.4,1.5,1.9,2.5,3.4,2.2l1.6,15.1l-10.6-10.9c1.1-1,1.3-2.8,0.4-4.1
		c-1-1.5-3-1.9-4.5-0.9s-1.9,3-0.9,4.5c0.8,1.3,2.6,1.7,3.9,1.2l7.8,15.1c0,0,0.8,4,0.8,7.6s-3,3.6-3,6c0,2.3,10.7,3.2,15.9,3.2
		s15.9-0.8,15.9-3.2c0-2.3-3-2.3-3-6c0-3.7,0.8-7.6,0.8-7.6l7.8-15.1c1.4,0.6,3.1,0.1,3.9-1.2C639.1,845.3,638.7,843.3,637.3,842.3z
		"/>
</g>
<g id="H7">
	<rect x="645.3" y="824.2" fill="#FDF6E3" width="66.7" height="66.7"/>
	<path fill="#D33483" d="M704.1,842.3c-1.5-1-3.5-0.6-4.5,0.9c-0.8,1.3-0.6,3.1,0.4,4.1l-10.6,10.9l1.6-15.1c1.5,0.2,3-0.7,3.4-2.2
		c0.5-1.7-0.4-3.5-2.1-4c-1.7-0.5-3.5,0.4-4,2.1c-0.4,1.5,0.3,3.1,1.6,3.8l-6.9,13.6l-2.8-15c1.5-0.3,2.7-1.5,2.7-3.2
		c0-1.7-1.4-3.2-3.2-3.2c-1.7,0-3.2,1.4-3.2,3.2c0,1.5,1.1,2.9,2.7,3.2l-2.8,15l-6.9-13.6c1.3-0.7,2-2.2,1.6-3.8
		c-0.5-1.7-2.3-2.7-4-2.1c-1.7,0.5-2.7,2.3-2.1,4c0.4,1.5,1.9,2.5,3.4,2.2l1.6,15.1l-10.6-10.9c1.1-1,1.3-2.8,0.4-4.1
		c-1-1.5-3-1.9-4.5-0.9s-1.9,3-0.9,4.5c0.8,1.3,2.6,1.7,3.9,1.2l7.8,15.1c0,0,0.8,4,0.8,7.6s-3,3.6-3,6c0,2.3,10.7,3.2,15.9,3.2
		s15.9-0.8,15.9-3.2c0-2.3-3-2.3-3-6c0-3.7,0.8-7.6,0.8-7.6l7.8-15.1c1.4,0.6,3.1,0.1,3.9-1.2C706,845.3,705.5,843.3,704.1,842.3z"
		/>
</g>
<g id="A8">
	<rect x="178.6" y="890.8" fill="#FDF6E3" width="66.7" height="66.7"/>
	<path fill="#D33483" d="M236.3,909c-1.5-1-3.5-0.6-4.5,0.9c-0.8,1.3-0.6,3.1,0.4,4.1l-10.6,10.9l1.6-15.1c1.5,0.2,3-0.7,3.4-2.2
		c0.5-1.7-0.4-3.5-2.1-4c-1.7-0.5-3.5,0.4-4,2.1c-0.4,1.5,0.3,3.1,1.6,3.8l-6.9,13.6l-2.8-15c1.5-0.3,2.7-1.5,2.7-3.2
		c0-1.7-1.4-3.2-3.2-3.2c-1.7,0-3.2,1.4-3.2,3.2c0,1.5,1.1,2.9,2.7,3.2l-2.8,15l-6.9-13.6c1.3-0.7,2-2.2,1.6-3.8
		c-0.5-1.7-2.3-2.7-4-2.1c-1.7,0.5-2.7,2.3-2.1,4c0.4,1.5,1.9,2.5,3.4,2.2l1.6,15.1L191.6,914c1.1-1,1.3-2.8,0.4-4.1
		c-1-1.5-3-1.9-4.5-0.9s-1.9,3-0.9,4.5c0.8,1.3,2.6,1.7,3.9,1.2l7.8,15.1c0,0,0.8,4,0.8,7.6s-3,3.6-3,6c0,2.3,10.7,3.2,15.9,3.2
		s15.9-0.8,15.9-3.2c0-2.3-3-2.3-3-6c0-3.7,0.8-7.6,0.8-7.6l7.8-15.1c1.4,0.6,3.1,0.1,3.9-1.2C238.2,911.9,237.8,910,236.3,909z"/>
</g>
<g id="B8">
	<rect x="245.4" y="890.8" fill="#EDE7D3" width="66.7" height="66.7"/>
	<path fill="#D33483" d="M303.2,909c-1.5-1-3.5-0.6-4.5,0.9c-0.8,1.3-0.6,3.1,0.4,4.1l-10.6,10.9l1.6-15.1c1.5,0.2,3-0.7,3.4-2.2
		c0.5-1.7-0.4-3.5-2.1-4s-3.5,0.4-4,2.1c-0.4,1.5,0.3,3.1,1.6,3.8l-6.9,13.6l-2.8-15c1.5-0.3,2.7-1.5,2.7-3.2c0-1.7-1.4-3.2-3.2-3.2
		s-3.2,1.4-3.2,3.2c0,1.5,1.1,2.9,2.7,3.2l-2.8,15l-6.9-13.6c1.3-0.7,2-2.2,1.6-3.8c-0.5-1.7-2.3-2.7-4-2.1c-1.7,0.5-2.7,2.3-2.1,4
		c0.4,1.5,1.9,2.5,3.4,2.2l1.6,15.1L258.5,914c1.1-1,1.3-2.8,0.4-4.1c-1-1.5-3-1.9-4.5-0.9s-1.9,3-0.9,4.5c0.8,1.3,2.6,1.7,3.9,1.2
		l7.8,15.1c0,0,0.8,4,0.8,7.6s-3,3.6-3,6c0,2.3,10.7,3.2,15.9,3.2s15.9-0.8,15.9-3.2c0-2.3-3-2.3-3-6c0-3.7,0.8-7.6,0.8-7.6
		l7.8-15.1c1.4,0.6,3.1,0.1,3.9-1.2C305,911.9,304.6,910,303.2,909z"/>
</g>
<g id="C8">
	<rect x="312.1" y="890.8" fill="#FDF6E3" width="66.7" height="66.7"/>
	<path fill="#D33483" d="M370,909c-1.5-1-3.5-0.6-4.5,0.9c-0.8,1.3-0.6,3.1,0.4,4.1l-10.6,10.9l1.6-15.1c1.5,0.2,3-0.7,3.4-2.2
		c0.5-1.7-0.4-3.5-2.1-4s-3.5,0.4-4,2.1c-0.4,1.5,0.3,3.1,1.6,3.8l-6.9,13.6l-2.8-15c1.5-0.3,2.7-1.5,2.7-3.2c0-1.7-1.4-3.2-3.2-3.2
		s-3.2,1.4-3.2,3.2c0,1.5,1.1,2.9,2.7,3.2l-2.8,15l-6.9-13.6c1.3-0.7,2-2.2,1.6-3.8c-0.5-1.7-2.3-2.7-4-2.1c-1.7,0.5-2.7,2.3-2.1,4
		c0.4,1.5,1.9,2.5,3.4,2.2l1.6,15.1L325.3,914c1.1-1,1.3-2.8,0.4-4.1c-1-1.5-3-1.9-4.5-0.9s-1.9,3-0.9,4.5c0.8,1.3,2.6,1.7,3.9,1.2
		l7.8,15.1c0,0,0.8,4,0.8,7.6s-3,3.6-3,6c0,2.3,10.7,3.2,15.9,3.2c5.2,0,15.9-0.8,15.9-3.2c0-2.3-3-2.3-3-6c0-3.7,0.8-7.6,0.8-7.6
		l7.8-15.1c1.4,0.6,3.1,0.1,3.9-1.2C371.8,911.9,371.4,910,370,909z"/>
</g>
<g id="D8">
	<rect x="378.7" y="890.8" fill="#EDE7D3" width="66.7" height="66.7"/>
	<path fill="#D33483" d="M436.8,909c-1.5-1-3.5-0.6-4.5,0.9c-0.8,1.3-0.6,3.1,0.4,4.1l-10.6,10.9l1.6-15.1c1.5,0.2,3-0.7,3.4-2.2
		c0.5-1.7-0.4-3.5-2.1-4s-3.5,0.4-4,2.1c-0.4,1.5,0.3,3.1,1.6,3.8l-6.9,13.6l-2.8-15c1.5-0.3,2.7-1.5,2.7-3.2c0-1.7-1.4-3.2-3.2-3.2
		s-3.2,1.4-3.2,3.2c0,1.5,1.1,2.9,2.7,3.2l-2.8,15l-6.9-13.6c1.3-0.7,2-2.2,1.6-3.8c-0.5-1.7-2.3-2.7-4-2.1c-1.7,0.5-2.7,2.3-2.1,4
		c0.4,1.5,1.9,2.5,3.4,2.2l1.6,15.1L392.1,914c1.1-1,1.3-2.8,0.4-4.1c-1-1.5-3-1.9-4.5-0.9s-1.9,3-0.9,4.5c0.8,1.3,2.6,1.7,3.9,1.2
		l7.8,15.1c0,0,0.8,4,0.8,7.6s-3,3.6-3,6c0,2.3,10.7,3.2,15.9,3.2s15.9-0.8,15.9-3.2c0-2.3-3-2.3-3-6c0-3.7,0.8-7.6,0.8-7.6
		l7.8-15.1c1.4,0.6,3.1,0.1,3.9-1.2C438.6,911.9,438.2,910,436.8,909z"/>
</g>
<g id="E8">
	<rect x="445.4" y="890.8" fill="#FDF6E3" width="66.7" height="66.7"/>
	<path fill="#D33483" d="M503.6,909c-1.5-1-3.5-0.6-4.5,0.9c-0.8,1.3-0.6,3.1,0.4,4.1l-10.6,10.9l1.6-15.1c1.5,0.2,3-0.7,3.4-2.2
		c0.5-1.7-0.4-3.5-2.1-4s-3.5,0.4-4,2.1c-0.4,1.5,0.3,3.1,1.6,3.8l-6.9,13.6l-2.8-15c1.5-0.3,2.7-1.5,2.7-3.2c0-1.7-1.4-3.2-3.2-3.2
		s-3.2,1.4-3.2,3.2c0,1.5,1.1,2.9,2.7,3.2l-2.8,15l-6.9-13.6c1.3-0.7,2-2.2,1.6-3.8c-0.5-1.7-2.3-2.7-4-2.1c-1.7,0.5-2.7,2.3-2.1,4
		c0.4,1.5,1.9,2.5,3.4,2.2l1.6,15.1L458.9,914c1.1-1,1.3-2.8,0.4-4.1c-1-1.5-3-1.9-4.5-0.9s-1.9,3-0.9,4.5c0.8,1.3,2.6,1.7,3.9,1.2
		l7.8,15.1c0,0,0.8,4,0.8,7.6s-3,3.6-3,6c0,2.3,10.7,3.2,15.9,3.2c5.2,0,15.9-0.8,15.9-3.2c0-2.3-3-2.3-3-6c0-3.7,0.8-7.6,0.8-7.6
		l7.8-15.1c1.4,0.6,3.1,0.1,3.9-1.2C505.5,911.9,505.1,910,503.6,909z"/>
</g>
<g id="F8">
	<rect x="512" y="890.8" fill="#EDE7D3" width="66.7" height="66.7"/>
	<path fill="#D33483" d="M570.5,909c-1.5-1-3.5-0.6-4.5,0.9c-0.8,1.3-0.6,3.1,0.4,4.1l-10.6,10.9l1.6-15.1c1.5,0.2,3-0.7,3.4-2.2
		c0.5-1.7-0.4-3.5-2.1-4c-1.7-0.5-3.5,0.4-4,2.1c-0.4,1.5,0.3,3.1,1.6,3.8l-6.9,13.6l-2.8-15c1.5-0.3,2.7-1.5,2.7-3.2
		c0-1.7-1.4-3.2-3.2-3.2c-1.7,0-3.2,1.4-3.2,3.2c0,1.5,1.1,2.9,2.7,3.2l-2.8,15l-6.9-13.6c1.3-0.7,2-2.2,1.6-3.8
		c-0.5-1.7-2.3-2.7-4-2.1c-1.7,0.5-2.7,2.3-2.1,4c0.4,1.5,1.9,2.5,3.4,2.2l1.6,15.1L525.8,914c1.1-1,1.3-2.8,0.4-4.1
		c-1-1.5-3-1.9-4.5-0.9s-1.9,3-0.9,4.5c0.8,1.3,2.6,1.7,3.9,1.2l7.8,15.1c0,0,0.8,4,0.8,7.6s-3,3.6-3,6c0,2.3,10.7,3.2,15.9,3.2
		s15.9-0.8,15.9-3.2c0-2.3-3-2.3-3-6c0-3.7,0.8-7.6,0.8-7.6l7.8-15.1c1.4,0.6,3.1,0.1,3.9-1.2C572.3,911.9,571.9,910,570.5,909z"/>
</g>
<g id="G8">
	<rect x="578.7" y="890.8" fill="#FDF6E3" width="66.7" height="66.7"/>
	<path fill="#D33483" d="M637.3,909c-1.5-1-3.5-0.6-4.5,0.9c-0.8,1.3-0.6,3.1,0.4,4.1l-10.6,10.9l1.6-15.1c1.5,0.2,3-0.7,3.4-2.2
		c0.5-1.7-0.4-3.5-2.1-4c-1.7-0.5-3.5,0.4-4,2.1c-0.4,1.5,0.3,3.1,1.6,3.8l-6.9,13.6l-2.8-15c1.5-0.3,2.7-1.5,2.7-3.2
		c0-1.7-1.4-3.2-3.2-3.2c-1.7,0-3.2,1.4-3.2,3.2c0,1.5,1.1,2.9,2.7,3.2l-2.8,15l-6.9-13.6c1.3-0.7,2-2.2,1.6-3.8
		c-0.5-1.7-2.3-2.7-4-2.1c-1.7,0.5-2.7,2.3-2.1,4c0.4,1.5,1.9,2.5,3.4,2.2l1.6,15.1L592.6,914c1.1-1,1.3-2.8,0.4-4.1
		c-1-1.5-3-1.9-4.5-0.9s-1.9,3-0.9,4.5c0.8,1.3,2.6,1.7,3.9,1.2l7.8,15.1c0,0,0.8,4,0.8,7.6s-3,3.6-3,6c0,2.3,10.7,3.2,15.9,3.2
		s15.9-0.8,15.9-3.2c0-2.3-3-2.3-3-6c0-3.7,0.8-7.6,0.8-7.6l7.8-15.1c1.4,0.6,3.1,0.1,3.9-1.2C639.1,911.9,638.7,910,637.3,909z"/>
</g>
<g id="H8">
	<rect x="645.3" y="890.8" fill="#EDE7D3" width="66.7" height="66.7"/>
	<path fill="#D33483" d="M704.1,909c-1.5-1-3.5-0.6-4.5,0.9c-0.8,1.3-0.6,3.1,0.4,4.1l-10.6,10.9l1.6-15.1c1.5,0.2,3-0.7,3.4-2.2
		c0.5-1.7-0.4-3.5-2.1-4c-1.7-0.5-3.5,0.4-4,2.1c-0.4,1.5,0.3,3.1,1.6,3.8l-6.9,13.6l-2.8-15c1.5-0.3,2.7-1.5,2.7-3.2
		c0-1.7-1.4-3.2-3.2-3.2c-1.7,0-3.2,1.4-3.2,3.2c0,1.5,1.1,2.9,2.7,3.2l-2.8,15l-6.9-13.6c1.3-0.7,2-2.2,1.6-3.8
		c-0.5-1.7-2.3-2.7-4-2.1c-1.7,0.5-2.7,2.3-2.1,4c0.4,1.5,1.9,2.5,3.4,2.2l1.6,15.1L659.4,914c1.1-1,1.3-2.8,0.4-4.1
		c-1-1.5-3-1.9-4.5-0.9s-1.9,3-0.9,4.5c0.8,1.3,2.6,1.7,3.9,1.2l7.8,15.1c0,0,0.8,4,0.8,7.6s-3,3.6-3,6c0,2.3,10.7,3.2,15.9,3.2
		s15.9-0.8,15.9-3.2c0-2.3-3-2.3-3-6c0-3.7,0.8-7.6,0.8-7.6l7.8-15.1c1.4,0.6,3.1,0.1,3.9-1.2C706,911.9,705.5,910,704.1,909z"/>
</g>
<g id="Border">
	
		<rect id="Outline" x="178.6" y="424.2" fill="none" stroke="#6C71C4" stroke-width="4" stroke-miterlimit="10" width="533.4" height="533.4"/>
</g>
<g id="Numbers">
	<g>
		<path fill="#6C71C4" d="M154.9,929.8L154.9,929.8c1.8,0.4,3,0.9,3.5,1.8c0.5,0.9,0.9,2.1,0.9,4.2c0,3.2-0.5,5.1-1.8,6.2
			c-1.2,0.9-3.7,1.4-7.4,1.4c-4.2,0-6.9-0.4-7.9-1.4c-1.2-0.9-1.8-2.8-1.8-5.8c0-2.3,0.4-3.7,0.9-4.6c0.5-0.7,1.8-1.4,3.7-1.8v-0.2
			c-1.8-0.4-2.8-0.9-3.3-1.8s-0.7-2.1-0.7-4.2c0-2.6,0.5-4.4,1.8-5.3c1.2-0.9,3.5-1.2,7.2-1.2c4,0,6.7,0.4,7.7,1.2
			c1.2,0.9,1.8,2.6,1.8,5.6c0,1.9-0.4,3.3-0.9,4C157.8,928.6,156.4,929.7,154.9,929.8z M149.4,931.3c-3,0-4.7,0.2-5.6,0.7
			c-0.9,0.5-1.1,1.8-1.1,3.9s0.2,3.3,0.7,3.9c0.5,0.5,1.6,0.9,3.3,0.9l3.7,0.2l2.3-0.2c1.4-0.2,2.3-0.7,2.8-1.2s0.7-2.1,0.7-3.9
			c0-1.9-0.4-3.2-1.2-3.7C154.5,931.4,152.6,931.3,149.4,931.3z M149.4,919.8c-2.8,0-4.7,0.2-5.3,0.7c-0.5,0.5-0.9,1.8-0.9,3.9
			c0,2.1,0.4,3.3,1.2,3.7c0.7,0.4,2.8,0.7,6.3,0.7c2.3,0,3.9-0.4,4.4-0.9c0.7-0.5,0.9-1.9,0.9-3.9c0-1.9-0.4-3.2-1.1-3.5
			C154.3,920.2,152.6,919.8,149.4,919.8z"/>
	</g>
	<g>
		<path fill="#6C71C4" d="M158.5,851.1v3.7l-12.3,21.8h-3.3l13.4-23h-16.2v-2.5H158.5z"/>
	</g>
	<g>
		<path fill="#6C71C4" d="M158.4,790.7h-2.8c0-0.4,0.2-0.7,0.2-0.9c0-1.4-0.4-2.3-1.1-2.6c-0.7-0.4-2.1-0.7-4.2-0.7
			c-3.2,0-5.3,0.4-6.2,0.9s-1.2,1.8-1.2,3.9v5.3h0.2c1.1-1.4,3.5-2.3,7.4-2.3c3.3,0,5.8,0.5,6.9,1.6c1.2,1.1,1.8,3.2,1.8,6.2
			c0,3.3-0.7,5.6-1.8,6.7c-1.2,1.1-3.7,1.6-7.6,1.6c-3.9,0-6.5-0.5-7.7-1.8c-1.2-1.3-1.8-3.5-1.8-7.2l-0.2-4.6l0.2-4.2
			c0-3.3,0.5-5.6,1.8-6.7c1.3-1.1,3.5-1.6,7.2-1.6s6.2,0.4,7.4,1.2c1.2,0.9,1.9,2.3,1.9,4.6L158.4,790.7z M149.6,796.5
			c-2.8,0-4.6,0.4-5.5,0.9s-1.2,1.8-1.2,3.7c0,3,0.4,4.7,1.2,5.6c0.7,0.7,2.6,1.1,5.8,1.1c3,0,4.7-0.4,5.6-0.9
			c0.7-0.5,1.1-2.1,1.1-4.4c0-2.6-0.4-4.2-1.1-4.7C154.9,797.2,152.6,796.5,149.6,796.5z"/>
	</g>
	<g>
		<path fill="#6C71C4" d="M158.4,717.8v2.5h-14.2L144,728h0.2c0.9-1.4,3.2-2.1,6.7-2.1c3.3,0,5.6,0.5,6.9,1.8
			c1.3,1.3,1.8,3.3,1.8,6.5c0,3.9-0.5,6.5-1.8,7.7c-1.2,1.2-3.7,1.8-7.4,1.8s-6.3-0.4-7.6-1.2c-1.2-0.9-1.9-2.6-1.9-5.3v-0.9h2.6
			c0,2.3,0.4,3.7,1.1,4.2c0.7,0.5,2.6,0.9,5.5,0.9c3.2,0,4.9-0.4,5.6-1.1c0.7-0.7,1.1-2.6,1.1-5.8c0-2.6-0.4-4.2-1.2-4.9
			c-0.9-0.7-2.6-1.1-5.3-1.1c-3.9,0-6,0.9-6.3,2.5h-2.6v-12.8h17.2v-0.4H158.4z"/>
	</g>
	<g>
		<path fill="#6C71C4" d="M156.4,650.9v17.2h3.9v2.5h-3.9v5.8h-2.8v-5.8h-14.2v-3.3l12.7-16.2L156.4,650.9L156.4,650.9z
			 M153.4,668.3V653h-0.2l-11.8,15.3H153.4z"/>
	</g>
	<g>
		<path fill="#6C71C4" d="M147.5,598v-2.5h0.9c3.3,0,5.6-0.2,6.3-0.7s1.2-1.6,1.2-3.5c0-2.3-0.4-3.7-0.9-4.2
			c-0.7-0.5-2.5-0.7-5.6-0.7c-2.8,0-4.4,0.2-5.1,0.7c-0.7,0.5-0.9,1.8-0.9,3.9v1.1h-2.8v-0.9c0-2.8,0.5-4.7,1.8-5.8
			c1.2-0.9,3.5-1.4,7.2-1.4s6.2,0.4,7.4,1.2c1.2,0.9,1.8,2.6,1.8,5.3c0,2.3-0.4,3.7-0.9,4.6s-1.8,1.4-3.3,1.6v0.2
			c1.9,0.2,3.2,0.7,3.9,1.6c0.7,0.7,0.9,2.3,0.9,4.4c0,3-0.7,4.9-1.8,5.8c-1.2,0.9-3.7,1.4-7.4,1.4c-4,0-6.7-0.4-7.9-1.4
			c-1.2-0.9-1.9-2.8-1.9-5.6v-1.4h2.8v1.4c0,2.1,0.4,3.5,1.1,3.9s2.8,0.7,6.3,0.7c2.6,0,4.4-0.4,5.1-0.9c0.7-0.7,1.1-2.1,1.1-4.2
			c0-1.9-0.4-3.2-0.9-3.7c-0.7-0.5-2.1-0.9-4.4-0.9H149h-1.1v0.2h-0.4V598z"/>
	</g>
	<g>
		<path fill="#6C71C4" d="M158.5,540.8v2.5h-18.3v-4.7c0-2.6,0.5-4.4,1.6-5.3s3.5-1.4,7.4-1.9c3.2-0.4,5.1-0.9,5.6-1.4
			c0.7-0.7,0.9-2.1,0.9-4.7c0-2.3-0.4-3.7-1.1-4.2c-0.7-0.7-2.3-0.9-4.7-0.9c-3.2,0-5.1,0.2-5.8,0.7c-0.9,0.5-1.2,1.8-1.2,3.9v1.9
			h-2.8v-1.3c0-3.2,0.7-5.1,1.9-6.2c1.2-0.9,3.9-1.4,7.7-1.4c3.3,0,5.8,0.5,6.9,1.6c1.1,1.1,1.8,3.2,1.8,6.3c0,3.2-0.5,5.1-1.6,6.2
			c-1.1,1.1-3.5,1.8-7.2,2.1c-3.2,0.4-5.1,0.7-5.8,1.4c-0.7,0.5-0.9,2.3-0.9,4.9v0.9L158.5,540.8L158.5,540.8z"/>
	</g>
	<g>
		<path fill="#6C71C4" d="M153.3,451v25.5h-2.8v-23.2l-6.5,7.2l-1.8-1.8l7-7.7H153.3L153.3,451z"/>
	</g>
	<g>
		<path fill="#6C71C4" d="M745.7,929.8L745.7,929.8c1.8,0.4,3,0.9,3.5,1.8c0.5,0.7,0.9,2.1,0.9,4.2c0,3.2-0.5,5.1-1.8,6.2
			c-1.2,1.1-3.7,1.4-7.4,1.4c-4.2,0-6.9-0.4-7.9-1.4c-1.2-0.9-1.8-2.8-1.8-5.8c0-2.3,0.4-3.7,0.9-4.6c0.5-0.7,1.8-1.4,3.7-1.8v-0.2
			c-1.8-0.4-2.8-0.9-3.3-1.8c-0.5-0.7-0.7-2.1-0.7-4.2c0-2.6,0.5-4.4,1.8-5.3c1.2-0.9,3.5-1.2,7.2-1.2c4,0,6.7,0.4,7.7,1.2
			c1.2,0.9,1.8,2.6,1.8,5.6c0,1.9-0.4,3.3-0.9,4C748.6,929.1,747.5,929.7,745.7,929.8z M740.5,931.3c-3,0-4.7,0.2-5.6,0.7
			c-0.9,0.5-1.1,1.8-1.1,3.9s0.2,3.3,0.7,3.9c0.5,0.7,1.6,0.9,3.3,0.9l3.7,0.2l2.3-0.2c1.4-0.2,2.3-0.7,2.8-1.2
			c0.5-0.7,0.7-2.1,0.7-3.9c0-1.9-0.4-3.2-1.2-3.7C745.4,931.4,743.5,931.3,740.5,931.3z M740.5,919.8c-2.8,0-4.7,0.2-5.3,0.7
			c-0.5,0.5-0.9,1.8-0.9,3.9c0,2.1,0.4,3.3,1.2,3.7c0.7,0.4,2.8,0.7,6.3,0.7c2.3,0,3.9-0.4,4.4-0.9c0.7-0.5,0.9-1.9,0.9-3.9
			c0-1.9-0.4-3.2-1.1-3.5C745.4,920.2,743.6,919.8,740.5,919.8z"/>
	</g>
	<g>
		<path fill="#6C71C4" d="M218.5,1003.2h-12.8l-1.9,5.5h-3.2l9.3-25.5h4l9.5,25.5h-3L218.5,1003.2z M217.6,1001.1l-5.6-15.7
			l-5.6,15.7H217.6z"/>
	</g>
	<g>
		<path fill="#6C71C4" d="M269.2,1008.6v-25.5h11.3c3.2,0,5.1,0.4,6.2,1.2c0.9,0.9,1.4,2.6,1.4,5.5c0,2.8-1.1,4.6-3.3,5.3v0.2
			c2.6,0.7,4,2.6,4,6c0,2.6-0.5,4.6-1.6,5.6c-1.1,1.1-2.8,1.6-5.6,1.6L269.2,1008.6L269.2,1008.6z M272.2,994.4h7.6
			c2.5,0,3.9-0.4,4.6-0.9s1.1-1.8,1.1-3.9c0-1.8-0.4-2.8-0.9-3.3c-0.7-0.5-1.9-0.7-3.9-0.7h-8.3L272.2,994.4L272.2,994.4z
			 M272.2,1006.2h6.2h2.6c2.3,0,3.7-0.4,4.2-0.9c0.7-0.5,1.1-1.8,1.1-3.7c0-2.3-0.4-3.7-1.1-4.2s-2.6-0.7-5.6-0.7h-7.4L272.2,1006.2
			L272.2,1006.2z"/>
	</g>
	<g>
		<path fill="#6C71C4" d="M353,1000h2.8v0.9c0,3.5-0.7,5.6-1.8,6.5c-1.2,0.9-4.2,1.2-9,1.2c-4.2,0-6.9-0.7-8.1-2.3
			c-1.2-1.4-1.8-5.1-1.8-10.7c0-4.4,0.2-7.2,0.4-8.3c0.2-1.2,0.9-2.1,2.3-3.2c1.4-1.1,4.6-1.6,9.3-1.6c3.2,0,5.5,0.5,6.7,1.4
			s1.8,3,1.8,5.8v0.7h-2.8v-0.7c0-2.1-0.4-3.3-0.9-3.9c-0.7-0.5-2.1-0.9-4.4-0.9c-4.2,0-6.7,0.4-7.6,1.1s-1.4,2.6-1.4,5.6
			c0,7.2,0.4,11.3,0.9,12.7c0.7,1.2,2.6,1.8,6.3,1.8c3.3,0,5.6-0.4,6.3-0.9c0.9-0.5,1.2-1.9,1.2-4L353,1000z"/>
	</g>
	<g>
		<path fill="#6C71C4" d="M401.9,1008.6v-25.5h11.8c3.7,0,6.2,0.9,7.4,2.5c1.2,1.6,1.9,4.7,1.9,9.1c0,5.6-0.5,9.1-1.8,11.1
			c-1.2,1.8-3.3,2.8-6.9,2.8H401.9L401.9,1008.6z M404.8,1006.2h8.3c3.2,0,5.1-0.7,5.8-1.8c0.9-1.2,1.2-3.9,1.2-8.1
			c0-4.6-0.4-7.6-1.2-8.8c-0.7-1.2-2.6-1.8-5.6-1.8h-8.8L404.8,1006.2L404.8,1006.2z"/>
	</g>
	<g>
		<path fill="#6C71C4" d="M473.3,985.6v8.6h12.8v2.5h-12.8v9.5h13.5v2.5h-16.4v-25.5h16.4v2.5L473.3,985.6L473.3,985.6z"/>
	</g>
	<g>
		<path fill="#6C71C4" d="M541.2,985.6v8.8h12.3v2.5h-12.3v11.8h-2.8v-25.5h15.7v2.5L541.2,985.6L541.2,985.6z"/>
	</g>
	<g>
		<path fill="#6C71C4" d="M611.6,996h10.9c0,0.7,0.2,1.6,0.2,2.8c0,4.6-0.5,7.4-1.8,8.6c-1.2,1.1-4,1.6-8.8,1.6
			c-4.4,0-7.4-0.7-8.6-1.9c-1.2-1.2-1.9-4.2-1.9-8.6v-3.7v-2.3c0-3.7,0.7-6.3,2.1-7.6c1.4-1.2,4.2-1.9,8.6-1.9s7.2,0.4,8.4,1.2
			c1.2,0.9,1.9,2.6,1.9,5.5v0.9h-2.8v-0.7c0-2.1-0.4-3.3-1.2-3.9c-0.9-0.4-3.2-0.7-6.7-0.7c-3.3,0-5.5,0.4-6.2,1.2
			c-0.7,0.7-1.2,2.8-1.2,6v3.3v3.7c0,3.2,0.4,5.3,1.4,5.8c0.9,0.7,3.3,1.1,7.4,1.1c3.2,0,5.1-0.4,5.6-1.1c0.7-0.7,1.1-2.6,1.1-5.5
			c0-0.2,0-0.7-0.2-1.6h-8.1v-2.3h-0.1V996z"/>
	</g>
	<g>
		<path fill="#6C71C4" d="M688.9,983.1v25.5h-2.8v-11.8h-14.9v11.8h-3v-25.5h2.8v11.3h15v-11.3H688.9z"/>
	</g>
	<g>
		<path fill="#6C71C4" d="M218.5,404.2h-12.8l-1.9,5.5h-3.2l9.3-25.5h4l9.5,25.5h-3L218.5,404.2z M217.6,402.1l-5.6-15.7l-5.6,15.7
			H217.6z"/>
	</g>
	<g>
		<path fill="#6C71C4" d="M269.2,409.6v-25.3h11.3c3.2,0,5.1,0.4,6.2,1.2c0.9,0.9,1.4,2.6,1.4,5.5s-1.1,4.6-3.3,5.3v0.2
			c2.6,0.7,4,2.6,4,6c0,2.6-0.5,4.6-1.6,5.6c-1.1,1.1-2.8,1.6-5.6,1.6C281.6,409.6,269.2,409.6,269.2,409.6z M272.2,395.4h7.6
			c2.5,0,3.9-0.4,4.6-0.9s1.1-1.8,1.1-3.9c0-1.8-0.4-2.8-0.9-3.3s-1.9-0.7-3.9-0.7h-8.3L272.2,395.4L272.2,395.4z M272.2,407.2h6.2
			h2.6c2.3,0,3.7-0.4,4.2-0.9c0.7-0.5,1.1-1.8,1.1-3.7c0-2.3-0.4-3.7-1.1-4.2s-2.6-0.7-5.6-0.7h-7.4L272.2,407.2L272.2,407.2z"/>
	</g>
	<g>
		<path fill="#6C71C4" d="M353,401.2h2.8v0.9c0,3.5-0.7,5.6-1.8,6.5c-1.2,0.9-4.2,1.2-9,1.2c-4.2,0-6.9-0.7-8.1-2.3
			c-1.2-1.4-1.8-5.1-1.8-10.7c0-4.4,0.2-7.2,0.4-8.3c0.4-1.2,0.9-2.1,2.3-3.2s4.6-1.6,9.3-1.6c3.2,0,5.5,0.5,6.7,1.4s1.8,3,1.8,5.8
			v0.7h-2.8v-0.7c0-2.1-0.4-3.3-0.9-3.9c-0.7-0.5-2.1-0.9-4.4-0.9c-4.2,0-6.7,0.4-7.6,1.1s-1.4,2.6-1.4,5.6c0,7.2,0.4,11.3,0.9,12.7
			c0.7,1.2,2.6,1.8,6.3,1.8c3.3,0,5.6-0.4,6.3-0.9c0.9-0.5,1.2-1.9,1.2-4L353,401.2z"/>
	</g>
	<g>
		<path fill="#6C71C4" d="M401.9,409.6v-25.3h11.8c3.7,0,6.2,0.9,7.4,2.5c1.2,1.6,1.9,4.7,1.9,9.1c0,5.6-0.5,9.1-1.8,11.1
			c-1.2,1.8-3.3,2.8-6.9,2.8L401.9,409.6L401.9,409.6z M404.8,407.2h8.3c3.2,0,5.1-0.7,5.8-1.8c0.7-1.1,1.2-3.9,1.2-8.1
			c0-4.6-0.4-7.6-1.2-8.8c-0.7-1.2-2.6-1.8-5.6-1.8h-8.8L404.8,407.2L404.8,407.2z"/>
	</g>
	<g>
		<path fill="#6C71C4" d="M473.3,386.6v8.8h12.8v2.5h-12.8v9.5h13.5v2.5h-16.4v-25.5h16.4v2.5L473.3,386.6L473.3,386.6z"/>
	</g>
	<g>
		<path fill="#6C71C4" d="M541.2,386.6v8.8h12.3v2.5h-12.3v11.8h-2.8v-25.3h15.7v2.5L541.2,386.6L541.2,386.6z"/>
	</g>
	<g>
		<path fill="#6C71C4" d="M611.6,397h10.9c0,0.7,0.2,1.6,0.2,2.8c0,4.6-0.5,7.4-1.8,8.6c-1.2,1.1-4,1.6-8.8,1.6
			c-4.4,0-7.4-0.7-8.6-1.9c-1.2-1.2-1.9-4.2-1.9-8.6v-3.7v-2.3c0-3.7,0.7-6.3,2.1-7.6c1.4-1.2,4.2-1.9,8.6-1.9s7.2,0.4,8.4,1.2
			c1.2,0.9,1.9,2.6,1.9,5.5v0.9h-2.8v-0.7c0-2.1-0.4-3.3-1.2-3.9c-0.9-0.5-3.2-0.7-6.7-0.7c-3.3,0-5.5,0.4-6.2,1.2
			c-0.9,0.7-1.2,2.8-1.2,6v3.3v3.7c0,3.2,0.4,5.3,1.4,5.8c0.9,0.7,3.3,1.1,7.4,1.1c3.2,0,5.1-0.4,5.6-1.1c0.7-0.7,1.1-2.6,1.1-5.5
			c0-0.2,0-0.7-0.2-1.6h-8.1v-2.3h-0.1V397z"/>
	</g>
	<g>
		<path fill="#6C71C4" d="M688.9,384.1v25.5h-2.8v-11.8h-14.9v11.8h-3v-25.5h2.8v11.3h15v-11.3H688.9z"/>
	</g>
	<g>
		<path fill="#6C71C4" d="M749.6,851.1v3.7l-12.3,21.8H734l13.4-23h-16.2v-2.5H749.6z"/>
	</g>
	<g>
		<path fill="#6C71C4" d="M749.4,790.7h-2.8c0-0.4,0.2-0.7,0.2-0.9c0-1.4-0.4-2.3-1.1-2.6c-0.7-0.3-2.1-0.7-4.2-0.7
			c-3.2,0-5.3,0.4-6.2,0.9s-1.2,1.8-1.2,3.9v5.3h0.2c1.1-1.4,3.5-2.3,7.4-2.3c3.3,0,5.8,0.5,6.9,1.6c1.2,1.1,1.8,3.2,1.8,6.2
			c0,3.3-0.7,5.6-1.8,6.7c-1.2,1.1-3.7,1.6-7.6,1.6c-3.9,0-6.5-0.5-7.7-1.8c-1.2-1.2-1.8-3.5-1.8-7.2l-0.2-4.6l0.2-4.2
			c0-3.3,0.5-5.6,1.8-6.7c1.2-1.1,3.5-1.6,7.2-1.6s6.2,0.4,7.4,1.2c1.2,0.9,1.9,2.3,1.9,4.6L749.4,790.7z M740.6,796.5
			c-2.8,0-4.6,0.4-5.5,0.9s-1.2,1.8-1.2,3.7c0,3,0.4,4.7,1.2,5.6c0.7,0.7,2.6,1.1,5.8,1.1c3,0,4.7-0.4,5.6-0.9
			c0.7-0.5,1.1-2.1,1.1-4.4c0-2.6-0.4-4.2-1.1-4.7C745.9,797.2,743.6,796.5,740.6,796.5z"/>
	</g>
	<g>
		<path fill="#6C71C4" d="M749.3,717.8v2.5H735l-0.2,7.7h0.2c0.9-1.4,3.2-2.1,6.7-2.1c3.3,0,5.6,0.5,6.9,1.8
			c1.3,1.3,1.8,3.3,1.8,6.5c0,3.9-0.5,6.5-1.8,7.7c-1.2,1.2-3.7,1.8-7.4,1.8s-6.3-0.4-7.6-1.2c-1.2-0.9-1.9-2.6-1.9-5.3v-0.9h2.6
			c0,2.3,0.4,3.7,1.1,4.2c0.7,0.5,2.6,0.9,5.5,0.9c3.2,0,4.9-0.4,5.6-1.1s1.1-2.6,1.1-5.8c0-2.6-0.4-4.2-1.2-4.9
			c-0.7-0.7-2.6-1.1-5.3-1.1c-3.9,0-6,0.9-6.3,2.5H732v-12.8h17.2v-0.4H749.3z"/>
	</g>
	<g>
		<path fill="#6C71C4" d="M747.5,650.9v17.2h3.9v2.5h-3.9v5.8h-2.8v-5.8h-14.2v-3.3l12.7-16.2L747.5,650.9L747.5,650.9z
			 M744.5,668.3V653h-0.2l-11.8,15.3H744.5z"/>
	</g>
	<g>
		<path fill="#6C71C4" d="M738.5,598v-2.5h0.9c3.3,0,5.6-0.2,6.3-0.7c0.7-0.4,1.2-1.6,1.2-3.5c0-2.3-0.4-3.7-0.9-4.2
			c-0.7-0.5-2.5-0.7-5.6-0.7c-2.8,0-4.4,0.2-5.1,0.7c-0.7,0.5-0.9,1.8-0.9,3.9v1.1h-2.8v-0.9c0-2.8,0.5-4.7,1.8-5.8
			c1.2-0.9,3.5-1.4,7.2-1.4s6.2,0.4,7.4,1.2c1.2,0.9,1.8,2.6,1.8,5.3c0,2.3-0.4,3.7-0.9,4.6s-1.8,1.4-3.3,1.6v0.2
			c1.9,0.2,3.2,0.7,3.9,1.6c0.7,0.7,0.9,2.3,0.9,4.4c0,3-0.7,4.9-1.8,5.8c-1.2,0.9-3.7,1.4-7.4,1.4c-4,0-6.7-0.4-7.9-1.4
			c-1.2-0.9-1.9-2.8-1.9-5.6v-1.4h2.8v1.4c0,2.1,0.4,3.5,1.1,3.9c0.7,0.4,2.8,0.7,6.3,0.7c2.6,0,4.4-0.4,5.1-0.9
			c0.7-0.7,1.1-2.1,1.1-4.2c0-1.9-0.4-3.2-0.9-3.7c-0.7-0.5-2.1-0.9-4.4-0.9H740h-1.4l0,0H738.5z"/>
	</g>
	<g>
		<path fill="#6C71C4" d="M749.6,540.8v2.5h-18.3v-4.7c0-2.6,0.5-4.4,1.6-5.3s3.5-1.4,7.4-1.9c3.2-0.4,5.1-0.9,5.6-1.4
			c0.7-0.7,0.9-2.1,0.9-4.7c0-2.3-0.4-3.7-1.1-4.2c-0.7-0.7-2.3-0.9-4.7-0.9c-3.2,0-5.1,0.2-5.8,0.7s-1.2,1.8-1.2,3.9v1.9h-2.5v-1.3
			c0-3.2,0.7-5.1,1.9-6.2c1.2-1.1,3.9-1.4,7.7-1.4c3.3,0,5.8,0.5,6.9,1.6c1.1,1.1,1.8,3.2,1.8,6.3c0,3.2-0.5,5.1-1.6,6.2
			c-1.1,1.1-3.5,1.8-7.2,2.1c-3.2,0.4-5.1,0.7-5.8,1.4c-0.7,0.5-0.9,2.3-0.9,4.9v0.9L749.6,540.8L749.6,540.8z"/>
	</g>
	<g>
		<path fill="#6C71C4" d="M744.3,451v25.5h-2.8v-23.2l-6.5,7.2l-1.8-1.8l7-7.7C740.1,451,744.3,451,744.3,451z"/>
	</g>
</g>
</svg>
