<?xml version="1.0" encoding="utf-8" ?>
<!-- Generator: Adobe Illustrator 18.1.1, SVG Export Plug-In . SVG Version: 6.00 Build 0)  -->
<svg version="1.1" id="Layer_1" xmlns="http://www.w3.org/2000/svg" xmlns:xlink="http://www.w3.org/1999/xlink" x="0px" y="0px"
	 viewBox="441.9 432.7 58.4 51" enable-background="new 441.9 432.7 58.4 51" xml:space="preserve">
<g id="queen">
	<path id="background" fill="#FFFFFF" stroke="#FFFFFF" stroke-width="3" stroke-miterlimit="10" d="M497.2,441.9
		c-1.6-1.1-3.7-0.7-4.8,1c-0.9,1.4-0.7,3.3,0.4,4.4L481.4,459l1.7-16.2c1.6,0.2,3.2-0.8,3.6-2.4c0.5-1.9-0.4-3.7-2.3-4.3
		c-1.9-0.5-3.7,0.4-4.3,2.3c-0.4,1.6,0.3,3.3,1.7,4l-7.4,14.5l-3-16.1c1.6-0.3,2.8-1.6,2.8-3.4c0-1.9-1.5-3.4-3.4-3.4
		c-1.9,0-3.4,1.5-3.4,3.4c0,1.6,1.2,3.1,2.8,3.4l-3,16.1l-7.4-14.5c1.4-0.8,2.2-2.4,1.7-4c-0.5-1.9-2.5-2.8-4.3-2.3
		c-1.9,0.5-2.8,2.5-2.3,4.3c0.4,1.6,2.1,2.6,3.6,2.4l1.7,16.2l-11.4-11.7c1.2-1.1,1.4-3,0.4-4.4c-1.1-1.6-3.2-2.1-4.8-1
		c-1.6,1.1-2.1,3.2-1,4.8c0.9,1.4,2.7,1.9,4.2,1.3l8.3,16.2c0,0,0.9,4.3,0.9,8.1c0,3.8-3.2,3.8-3.2,6.4c0,2.5,11.5,3.4,17,3.4
		s17-0.9,17-3.4c0-2.5-3.2-2.5-3.2-6.4c0-3.9,0.9-8.1,0.9-8.1l8.3-16.2c1.5,0.7,3.3,0.1,4.2-1.3C499.1,445.1,498.7,443,497.2,441.9z
		"/>
	<path id="foreground" fill="#D23581" d="M497.2,441.9c-1.6-1.1-3.7-0.7-4.8,1c-0.9,1.4-0.7,3.3,0.4,4.4L481.4,459l1.7-16.2
		c1.6,0.2,3.2-0.8,3.6-2.4c0.5-1.9-0.4-3.7-2.3-4.3c-1.9-0.5-3.7,0.4-4.3,2.3c-0.4,1.6,0.3,3.3,1.7,4l-7.4,14.5l-3-16.1
		c1.6-0.3,2.8-1.6,2.8-3.4c0-1.9-1.5-3.4-3.4-3.4c-1.9,0-3.4,1.5-3.4,3.4c0,1.6,1.2,3.1,2.8,3.4l-3,16.1l-7.4-14.5
		c1.4-0.8,2.2-2.4,1.7-4c-0.5-1.9-2.5-2.8-4.3-2.3c-1.9,0.5-2.8,2.5-2.3,4.3c0.4,1.6,2.1,2.6,3.6,2.4l1.7,16.2l-11.4-11.7
		c1.2-1.1,1.4-3,0.4-4.4c-1.1-1.6-3.2-2.1-4.8-1c-1.6,1.1-2.1,3.2-1,4.8c0.9,1.4,2.7,1.9,4.2,1.3l8.3,16.2c0,0,0.9,4.3,0.9,8.1
		c0,3.8-3.2,3.8-3.2,6.4c0,2.5,11.5,3.4,17,3.4s17-0.9,17-3.4c0-2.5-3.2-2.5-3.2-6.4c0-3.9,0.9-8.1,0.9-8.1l8.3-16.2
		c1.5,0.7,3.3,0.1,4.2-1.3C499.1,445.1,498.7,443,497.2,441.9z"/>
</g>
</svg>
